<?xml version="1.0" encoding="UTF-8"?>
<svg version="1.1" xmlns="http://www.w3.org/2000/svg" width="1024" height="1024">
<path d="M0 0 C337.92 0 675.84 0 1024 0 C1024 337.92 1024 675.84 1024 1024 C686.08 1024 348.16 1024 0 1024 C0 686.08 0 348.16 0 0 Z " fill="#E7E7E8" transform="translate(0,0)"/>
<path d="M0 0 C2.50875221 0.00521813 5.01749199 0.00714894 7.52624893 0.00866318 C27.85228241 0.02999024 48.12753643 0.26278918 68.4152565 1.63015366 C69.31055069 1.68891678 70.20584488 1.7476799 71.1282692 1.80822372 C119.0192549 5.07891783 152.74451095 26.36746783 190.37424088 54.69997787 C198.03507726 60.42535625 204.23893462 63.79945499 213.7902565 65.25515366 C215.7518706 65.58316397 217.71279527 65.91531954 219.673069 66.25124741 C220.67370377 66.42253159 221.67433853 66.59381577 222.70529556 66.77029037 C236.17147284 69.2089955 249.57925012 72.53648555 262.7277565 76.31765366 C264.22242447 76.74111069 264.22242447 76.74111069 265.74728775 77.17312241 C277.34055481 80.72714939 289.61800466 86.16347019 298.7277565 94.31765366 C299.37357681 94.89515366 300.01939713 95.47265366 300.68478775 96.06765366 C304.00802605 99.20814769 306.49137539 101.78425625 307.7277565 106.31765366 C307.10127213 106.29445053 306.47478775 106.27124741 305.829319 106.24734116 C305.01205338 106.22929428 304.19478775 106.21124741 303.3527565 106.19265366 C302.54064713 106.16945053 301.72853775 106.14624741 300.891819 106.12234116 C298.51433407 106.10395315 298.51433407 106.10395315 296.7277565 108.31765366 C295.97378671 114.9038015 296.8263552 121.01926186 298.7277565 127.31765366 C303.72027658 127.39949825 308.57978848 127.29032682 313.55197525 126.81374741 C314.52610367 126.72149887 315.50023209 126.62925034 316.50387955 126.53420639 C317.23775894 126.46274399 317.97163834 126.39128159 318.7277565 126.31765366 C318.84625085 142.3362665 318.92775229 158.33457715 317.7277565 174.31765366 C317.59627213 176.13909897 317.59627213 176.13909897 317.4621315 177.99734116 C316.51224039 186.27791367 313.2958933 190.5809979 306.9465065 195.77468491 C300.36857643 200.38759773 291.73353554 203.31765366 283.7277565 203.31765366 C283.4183815 204.58609116 283.4183815 204.58609116 283.1027565 205.88015366 C279.82685943 214.06989632 274.42227028 217.40291987 266.63010025 221.15359116 C260.08480852 223.77875527 253.55754074 223.53507855 246.6027565 223.56765366 C244.98627213 223.59859116 244.98627213 223.59859116 243.3371315 223.63015366 C232.49332083 223.68241298 222.72061849 222.12968166 214.7277565 214.31765366 C209.7277565 208.46399512 209.7277565 208.46399512 209.7277565 205.31765366 C208.84446167 205.31987427 207.96116684 205.32209488 207.0511055 205.32438278 C198.56954894 205.3447405 190.08800102 205.35980345 181.60642529 205.36946583 C177.24996682 205.37460087 172.89352916 205.38151874 168.53708267 205.39309311 C146.57770521 205.44992478 124.67039835 205.21845223 102.7277565 204.31765366 C102.51735733 205.73582382 102.51735733 205.73582382 102.30270767 207.18264389 C101.04305431 214.05109774 95.29302936 219.46477244 89.7277565 223.31765366 C78.98868509 228.83634313 67.69258457 228.54572355 55.85080338 228.61281967 C54.4353374 228.62437649 53.01991625 228.64488676 51.60470963 228.67434311 C40.51472584 228.90388833 31.12143653 228.0751533 22.5402565 220.38015366 C11.30288281 209.54852501 6.77841269 194.33729658 6.30856705 179.08327866 C6.18681108 162.77122636 10.00628123 146.35021613 21.6808815 134.30202866 C28.66137991 127.96096522 33.94805799 125.71400279 43.4777565 125.97390366 C51.79748174 126.85387459 58.17832412 131.20387222 63.7277565 137.31765366 C73.77495 150.77710155 75.90606706 165.10564661 75.9152565 181.38015366 C75.92750259 182.52548569 75.93974869 183.67081772 75.95236588 184.85085678 C75.9625705 190.73212416 75.76221337 195.77717624 73.7277565 201.31765366 C75.3777565 200.98765366 77.0277565 200.65765366 78.7277565 200.31765366 C80.8573924 192.50898869 81.02770667 185.1346064 80.9777565 177.06765366 C80.98549088 175.83402084 80.99322525 174.60038803 81.001194 173.32937241 C80.96065579 154.05345172 77.18706995 136.75744689 63.7277565 122.31765366 C60.89415376 119.88885131 58.04172001 118.02249048 54.7277565 116.31765366 C54.11674088 115.98120834 53.50572525 115.64476303 52.876194 115.29812241 C46.10935995 112.14506569 37.55087837 112.1037807 30.3996315 113.90359116 C20.63259737 118.23126075 13.34895772 126.95072783 8.7277565 136.31765366 C8.27658463 137.22128647 7.82541275 138.12491928 7.360569 139.05593491 C2.33399995 150.04597789 0.49389422 161.44588982 0.4152565 173.44265366 C0.40691788 174.46093246 0.40691788 174.46093246 0.3984108 175.49978256 C0.49491674 182.51254765 1.65492522 189.39921219 2.7277565 196.31765366 C1.53851578 196.21219223 0.34927505 196.1067308 -0.87600327 195.99807358 C-54.50118191 191.02453365 -54.50118191 191.02453365 -108.2722435 188.31765366 C-108.53488998 188.9952977 -108.79753647 189.67294174 -109.06814194 190.37112045 C-109.59456284 191.71170517 -109.59456284 191.71170517 -110.1316185 193.07937241 C-110.47676498 193.96326645 -110.82191147 194.84716049 -111.17751694 195.7578392 C-114.1485086 202.70495063 -118.38273637 207.13513047 -125.2722435 210.31765366 C-132.21415536 212.59341061 -138.81301458 212.72442975 -146.03274155 212.74319077 C-148.20160888 212.75510896 -150.36764466 212.80439527 -152.53591537 212.85476303 C-160.20844642 212.94501771 -166.32691779 212.72386168 -172.2722435 207.31765366 C-172.97736069 206.71823959 -173.68247787 206.11882553 -174.40896225 205.50124741 C-185.8100146 192.66429426 -187.17035348 176.29585269 -186.467556 159.90017319 C-185.58762787 148.26532351 -181.49139976 136.71489811 -172.6472435 128.81765366 C-167.02327584 124.27623376 -162.38257181 123.65622777 -155.2722435 124.31765366 C-148.32038911 126.11554703 -144.2938917 130.6026799 -140.2722435 136.31765366 C-132.60912504 150.1587901 -131.78542009 165.86926858 -131.2722435 181.31765366 C-130.6122435 180.98765366 -129.9522435 180.65765366 -129.2722435 180.31765366 C-129.17179372 176.14087454 -129.10004951 171.96477381 -129.05251694 167.78713608 C-129.03265956 166.37229765 -129.00556384 164.95753835 -128.97048569 163.54299545 C-128.56911341 146.91555851 -132.75898872 131.37161352 -144.44021225 118.97780991 C-150.10574393 113.84379932 -155.70422263 112.52788681 -163.30739975 112.80593491 C-170.23023059 114.0007845 -175.60302765 118.82414691 -179.8659935 124.22390366 C-189.91721136 139.18905025 -190.82410495 154.86005764 -191.2722435 172.31765366 C-198.84744182 171.5293256 -198.84744182 171.5293256 -202.0222435 168.75515366 C-202.57396225 168.30011459 -203.125681 167.84507553 -203.6941185 167.37624741 C-207.94396256 161.83251518 -208.72041577 155.72717304 -208.63552475 148.98952866 C-208.63692963 148.21044647 -208.6383345 147.43136429 -208.63978195 146.62867355 C-208.63842311 144.10793594 -208.61329568 141.58821971 -208.5847435 139.06765366 C-208.57914413 138.2060463 -208.57354477 137.34443893 -208.56777573 136.45672226 C-208.49373863 125.1268155 -208.23158015 113.81422801 -207.5222435 102.50515366 C-207.46077133 101.40590561 -207.39929916 100.30665756 -207.3359642 99.17409897 C-206.39243159 86.65493666 -201.66001998 77.17839617 -192.5222435 68.63015366 C-187.10573812 64.09227988 -180.97193738 61.15283778 -174.2722435 59.00515366 C-170.85397162 57.78310782 -168.47640038 56.00988883 -165.6941185 53.69265366 C-114.38239384 11.89161534 -64.73259296 -0.14351785 0 0 Z " fill="#012D48" transform="translate(458.27224349975586,297.68234634399414)"/>
<path d="M0 0 C10.28823222 6.79261664 17.33736373 17.23952625 20.0234375 29.3359375 C21.1030887 44.62071377 18.9241595 56.42248878 9.2421875 68.83203125 C0.95207503 78.18759832 -10.3426017 84.56974244 -22.97265625 85.57421875 C-37.27742853 85.88272122 -49.66666246 82.10604916 -60.26171875 72.19921875 C-69.47219365 62.3345419 -73.33705792 52.39965395 -73.2890625 38.9609375 C-73.31323242 37.61902344 -73.31323242 37.61902344 -73.33789062 36.25 C-73.34644214 24.483116 -68.76546612 14.19363147 -60.7265625 5.5859375 C-43.38967059 -10.53699261 -19.95792279 -11.88829336 0 0 Z " fill="#022C47" transform="translate(685.9765625,667.6640625)"/>
<path d="M0 0 C56.18685121 0 56.18685121 0 69.44140625 12.2578125 C80.05275914 23.41109609 82.58023008 33.68962529 82.3359375 48.60546875 C81.86089011 59.90256681 76.98245649 69.04555213 69 77 C49.29893005 94.01753551 25.36616095 89 0 89 C0 59.63 0 30.26 0 0 Z " fill="#012A46" transform="translate(140,662)"/>
<path d="M0 0 C10.85028024 -0.07012423 21.70050483 -0.12312334 32.55096722 -0.15543652 C37.59159653 -0.17096069 42.63206858 -0.19195035 47.67260742 -0.22631836 C52.55506198 -0.2593926 57.4373672 -0.27695199 62.31992531 -0.28463173 C64.16424721 -0.29009047 66.0085628 -0.30074361 67.85281944 -0.31719017 C93.64835523 -0.53765914 117.33286582 3.37461295 140 16 C140.61552734 16.34015137 141.23105469 16.68030273 141.86523438 17.03076172 C149.77060772 21.45180606 157.24680725 26.43880993 164.625 31.6875 C165.38345215 32.22205811 166.1419043 32.75661621 166.92333984 33.30737305 C171.31467807 36.49136396 174.71909475 39.67517035 178 44 C172.88821615 44.98457705 167.85637746 45.31826681 162.66894531 45.55200195 C161.75262959 45.59404157 160.83631386 45.63608118 159.89223099 45.67939472 C148.69629134 46.15075296 137.50094568 46.1642203 126.296875 46.16796875 C123.99432353 46.17119259 121.69177226 46.17455745 119.38922119 46.17805481 C114.60924809 46.18398425 109.82929292 46.18590067 105.04931641 46.18530273 C98.94017277 46.18520032 92.83114326 46.1989617 86.72202682 46.21607494 C81.98644483 46.227202 77.25089066 46.22922188 72.51529694 46.22869301 C70.26195119 46.22986783 68.00860459 46.23426148 65.75527191 46.24202538 C62.61248175 46.25185956 59.46994293 46.24893592 56.32714844 46.24291992 C54.95243126 46.25134918 54.95243126 46.25134918 53.54994202 46.25994873 C40.88448246 46.19856858 32.8202853 42.68574466 23.5625 34.0625 C18.27863339 28.59484673 14.34496358 22.31321862 10.26269531 15.93847656 C7.49357336 11.68734966 4.53505103 7.56368849 1.6171875 3.4140625 C0 1 0 1 0 0 Z " fill="#E7E7E9" transform="translate(453,317)"/>
<path d="M0 0 C8.394375 -0.0825 16.78875 -0.165 25.4375 -0.25 C28.07032959 -0.28641602 30.70315918 -0.32283203 33.41577148 -0.36035156 C35.52587064 -0.37204493 37.63597888 -0.38223521 39.74609375 -0.390625 C40.82282349 -0.41108887 41.89955322 -0.43155273 43.00891113 -0.45263672 C52.53091276 -0.45700111 60.96975996 2.35659135 68 9 C74.30023425 16.70835112 76.50258803 24.01631073 76.31640625 33.93359375 C75.53995701 41.45844132 72.3690561 47.7529679 67 53 C64.41185389 54.81700388 61.757445 56.45364126 59 58 C60.73048996 63.03967251 63.5267253 67.36892618 66.3125 71.875 C66.78623047 72.65230469 67.25996094 73.42960938 67.74804688 74.23046875 C70.00193597 77.89959053 72.30558529 81.47416342 74.85546875 84.9453125 C77 88 77 88 77 90 C68.7935899 91.30938045 60.04733065 92.56115716 52 90 C46.20598977 85.24184946 43.06852305 78.26165614 40.13720703 71.49536133 C39.01991901 68.91203668 39.01991901 68.91203668 37.35888672 66.30737305 C36 64 36 64 36 62 C31.38 62 26.76 62 22 62 C22 71.24 22 80.48 22 90 C14.74 90 7.48 90 0 90 C0 60.3 0 30.6 0 0 Z " fill="#012B46" transform="translate(572,556)"/>
<path d="M0 0 C12.00375 -0.1546875 12.00375 -0.1546875 24.25 -0.3125 C28.00165527 -0.38078003 28.00165527 -0.38078003 31.82910156 -0.45043945 C53.04454782 -0.67494208 53.04454782 -0.67494208 62 5 C62.60932373 5.36859131 63.21864746 5.73718262 63.84643555 6.11694336 C68.35969278 9.33100302 70.61278487 14.15899402 73 19 C73.495 19.99 73.495 19.99 74 21 C75.20005552 39.29592842 75.20005552 39.29592842 70 46 C69.29423828 46.94939453 69.29423828 46.94939453 68.57421875 47.91796875 C65.78638706 51.41176298 63.10294492 54.06249823 59 56 C58.34 56 57.68 56 57 56 C62.31321812 65.01279223 67.79250747 73.88593408 73.54418945 82.62670898 C77 87.89967675 77 87.89967675 77 89 C55.61523742 91.36530272 55.61523742 91.36530272 50.04541016 87.72119141 C47.00492343 84.31548105 45.38484594 80.2723679 43.81201172 76.03173828 C42.53847383 72.84521324 40.75200937 70.09849652 38.9375 67.1875 C36 62.25170068 36 62.25170068 36 60 C31.38 60 26.76 60 22 60 C22 69.57 22 79.14 22 89 C14.74 89 7.48 89 0 89 C0 59.63 0 30.26 0 0 Z " fill="#012C47" transform="translate(721,662)"/>
<path d="M0 0 C7.8375 -0.103125 15.675 -0.20625 23.75 -0.3125 C26.19889648 -0.35802002 28.64779297 -0.40354004 31.17089844 -0.45043945 C45.29221986 -0.60421889 56.62417172 -0.13891237 67.37890625 10.1015625 C73.65332378 17.4494346 74.65007762 25.64398098 74 35 C72.79720323 43.00983343 67.97715904 48.74764596 62 54 C60.34889709 54.70433047 58.68346009 55.37695558 57 56 C57.46374023 56.75095947 57.92748047 57.50191895 58.40527344 58.27563477 C60.14317509 61.09114836 61.88003246 63.90730071 63.61621094 66.72387695 C64.36449828 67.93734637 65.11318789 69.15056784 65.86230469 70.36352539 C73.52239033 82.76775741 73.52239033 82.76775741 77 89 C68.78175958 90.58512056 60.0160085 91.95939489 52 89 C44.09739668 81.84863362 38.56582784 70.26331136 36 60 C31.05 60 26.1 60 21 60 C21 69.57 21 79.14 21 89 C14.07 89 7.14 89 0 89 C0 59.63 0 30.26 0 0 Z " fill="#012C47" transform="translate(276,662)"/>
<path d="M0 0 C8.25 0 16.5 0 25 0 C26.21623047 2.99513672 26.21623047 2.99513672 27.45703125 6.05078125 C30.38885758 13.27031049 33.32210989 20.48925988 36.25585938 27.70800781 C37.33821862 30.37128637 38.42022217 33.03470829 39.50195312 35.69824219 C40.85454973 39.02836927 42.20828404 42.35803114 43.5625 45.6875 C43.9970752 46.75718018 44.43165039 47.82686035 44.87939453 48.92895508 C47.33993844 54.97204008 49.8309804 61.00131695 52.3515625 67.01953125 C52.9133975 68.36431103 53.47516566 69.70911873 54.03686523 71.05395508 C55.11640737 73.63835682 56.20287292 76.21969889 57.29321289 78.79956055 C57.77781982 79.95883057 58.26242676 81.11810059 58.76171875 82.3125 C59.19444092 83.33988281 59.62716309 84.36726562 60.07299805 85.42578125 C61 88 61 88 61 91 C53.41 91 45.82 91 38 91 C37.175 88.586875 36.35 86.17375 35.5 83.6875 C35.23896484 82.93170654 34.97792969 82.17591309 34.70898438 81.3972168 C33.72282302 78.47512677 33 76.10385594 33 73 C20.13 73.33 7.26 73.66 -6 74 C-7.98 79.61 -9.96 85.22 -12 91 C-19.92 91 -27.84 91 -36 91 C-34.18507568 85.55522705 -32.40980246 80.3492398 -30.25 75.0703125 C-29.86838715 74.13412834 -29.86838715 74.13412834 -29.47906494 73.17903137 C-28.65533223 71.15993834 -27.82764866 69.14249056 -27 67.125 C-26.41865023 65.70137372 -25.83759999 64.27762509 -25.25683594 62.85375977 C-23.50786987 58.567815 -21.75426843 54.2837766 -20 50 C-18.08144688 45.31327013 -16.16452618 40.62587651 -14.25 35.9375 C-13.80744873 34.85380127 -13.36489746 33.77010254 -12.90893555 32.65356445 C-8.49432963 21.81191984 -4.23941449 10.91127993 0 0 Z " fill="#022C47" transform="translate(499,555)"/>
<path d="M0 0 C21.78 0 43.56 0 66 0 C66 6.27 66 12.54 66 19 C50.82 19 35.64 19 20 19 C20 24.28 20 29.56 20 35 C34.52 35 49.04 35 64 35 C64 40.94 64 46.88 64 53 C49.48 53 34.96 53 20 53 C20 58.61 20 64.22 20 70 C35.18 70 50.36 70 66 70 C66 76.27 66 82.54 66 89 C44.22 89 22.44 89 0 89 C0 59.63 0 30.26 0 0 Z " fill="#012B46" transform="translate(366,662)"/>
<path d="M0 0 C13.277108 10.29326322 23.11015021 24.54610474 29.58984375 40.0078125 C29.58984375 40.6678125 29.58984375 41.3278125 29.58984375 42.0078125 C26.40243469 42.06895507 23.2151819 42.10239005 20.02734375 42.1328125 C19.17076172 42.14957031 18.31417969 42.16632813 17.43164062 42.18359375 C9.85060486 42.236794 2.38041281 41.61521772 -5.1603241 40.92619324 C-14.75609788 40.05056654 -24.35861213 39.28507197 -33.96484375 38.53515625 C-35.62717603 38.40487937 -37.28950409 38.27454866 -38.951828 38.14416504 C-45.80906222 37.60671012 -52.6664709 37.0714964 -59.52392578 36.53686523 C-63.77805203 36.20510528 -68.03206461 35.87191732 -72.28601456 35.53790474 C-74.65493566 35.35234881 -77.02398193 35.16845455 -79.39303589 34.98460388 C-86.41301365 34.43561444 -93.41790985 33.84986506 -100.41015625 33.0078125 C-99.02826673 26.61574697 -93.8905387 23.36555294 -88.64208984 19.81005859 C-66.48917372 5.54986304 -25.9027093 -15.98015064 0 0 Z " fill="#E6E7E8" transform="translate(425.41015625,322.9921875)"/>
<path d="M0 0 C0.94681641 -0.01611328 1.89363281 -0.03222656 2.86914062 -0.04882812 C15.11229178 -0.05725424 25.60509716 4.51520766 34.3125 13.1875 C35.28161748 14.21914119 36.24442193 15.25700203 37.1875 16.3125 C35.77128621 19.43938787 34.06418024 21.85150915 31.8125 24.4375 C31.22726562 25.12070312 30.64203125 25.80390625 30.0390625 26.5078125 C28.18078239 28.31904755 26.5592373 29.29902635 24.1875 30.3125 C23.69121094 29.91417969 23.19492187 29.51585937 22.68359375 29.10546875 C21.66458984 28.31076172 21.66458984 28.31076172 20.625 27.5 C19.96371094 26.97792969 19.30242187 26.45585938 18.62109375 25.91796875 C13.07147515 22.25682389 7.92110348 20.74960641 1.3125 20.8125 C0.61213623 20.81822021 -0.08822754 20.82394043 -0.80981445 20.82983398 C-7.80522591 21.07044049 -12.60791046 22.9016745 -17.390625 27.9921875 C-23.09776533 35.37211034 -23.5064523 43.26943404 -22.8125 52.3125 C-21.5215172 59.1103313 -18.73962405 64.18444337 -13.23828125 68.56640625 C-6.29332513 72.89005572 2.95991437 72.43212158 10.72265625 70.76953125 C14.96323963 69.29063801 18.53945081 66.88271648 22.1875 64.3125 C23.51214614 63.62873482 24.84399221 62.95841721 26.1875 62.3125 C26.88617188 63.02277344 27.58484375 63.73304688 28.3046875 64.46484375 C29.66980469 65.84349609 29.66980469 65.84349609 31.0625 67.25 C31.96742188 68.16652344 32.87234375 69.08304688 33.8046875 70.02734375 C35.96432255 72.32437627 35.96432255 72.32437627 38.1875 73.3125 C34.16565479 82.6415224 24.08392352 87.58213759 15.1875 91.3125 C3.97188978 95.75601795 -8.98937868 93.91982369 -19.8125 89.3125 C-31.08346673 83.60306016 -39.29717865 75.19584573 -43.8125 63.3125 C-45.51436287 57.57393782 -46.16978203 52.41014291 -46.125 46.4375 C-46.11936035 45.64666016 -46.1137207 44.85582031 -46.10791016 44.04101562 C-45.8481425 31.52072921 -41.18568822 21.70513125 -32.625 12.5625 C-23.1706547 3.5393495 -12.82005953 -0.04310713 0 0 Z " fill="#022B47" transform="translate(418.8125,554.6875)"/>
<path d="M0 0 C4.01969239 2.71490141 8.0383782 5.47095341 11.12109375 9.25 C11.10998931 12.0871851 10.21744834 13.13744229 8.37890625 15.28515625 C7.67507813 15.95417969 6.97125 16.62320313 6.24609375 17.3125 C5.19808594 18.31990234 5.19808594 18.31990234 4.12890625 19.34765625 C3.46632813 19.97542969 2.80375 20.60320313 2.12109375 21.25 C1.11775488 22.24664994 0.11638795 23.24531624 -0.87890625 24.25 C-1.80703125 23.3425 -2.73515625 22.435 -3.69140625 21.5 C-10.65521793 15.5989387 -18.91652066 13.4374399 -27.953125 13.8125 C-33.97417054 14.71284326 -38.82221604 16.8205085 -42.796875 21.515625 C-48.79810421 30.35353975 -49.02336679 39.46766831 -47.48828125 49.90625 C-45.77827248 55.43089373 -41.52743527 59.09989792 -36.87890625 62.25 C-30.23232567 65.62961724 -21.23952832 65.38782099 -14.109375 63.52734375 C-9.36385508 61.53050658 -5.64586667 58.72719424 -1.87890625 55.25 C1.24798162 56.66621379 3.6601029 58.37331976 6.24609375 60.625 C6.92929687 61.21023438 7.6125 61.79546875 8.31640625 62.3984375 C10.1276413 64.25671761 11.1076201 65.8782627 12.12109375 68.25 C0.99694586 80.06940714 -9.96962294 86.17150635 -26.56640625 86.75 C-39.50847797 86.25892996 -51.28828354 80.38797198 -60.19140625 71.0625 C-69.40966487 59.95137513 -73.03044965 47.48892558 -71.87890625 33.25 C-69.84037349 20.86462868 -63.75163017 10.03962318 -53.87890625 2.25 C-36.60592039 -8.70002619 -17.90725551 -10.88527879 0 0 Z " fill="#022C47" transform="translate(514.87890625,666.75)"/>
<path d="M0 0 C7.92 0 15.84 0 24 0 C25.10859375 1.96324219 26.2171875 3.92648437 27.359375 5.94921875 C28.44393375 7.86282353 29.52999922 9.77556553 30.61621094 11.68823242 C31.36648691 13.01123198 32.11520957 14.33511373 32.86230469 15.65991211 C33.94051973 17.57122798 35.02440304 19.47923224 36.109375 21.38671875 C36.75874023 22.53358154 37.40810547 23.68044434 38.07714844 24.86206055 C39.86783836 27.78432281 41.79524941 30.3813225 44 33 C46.0631792 29.42548451 48.12615964 25.85085438 50.18896484 22.27612305 C50.88910701 21.06287623 51.58930122 19.84965944 52.28955078 18.63647461 C53.30254961 16.88142885 54.31535425 15.12627114 55.328125 13.37109375 C55.9355957 12.31849365 56.54306641 11.26589355 57.16894531 10.18139648 C59.11985945 6.7917482 61.05960946 3.39568344 63 0 C70.92 0 78.84 0 87 0 C82.7413724 7.90696369 78.32205335 15.70553531 73.77856445 23.45092773 C72.69599254 25.29801005 71.61838952 27.14792907 70.54101562 28.99804688 C70.18565231 29.60459106 69.830289 30.21113525 69.4641571 30.83605957 C68.74453767 32.06480687 68.02857197 33.29570114 67.3162384 34.52868652 C65.51285529 37.60982568 63.64273822 40.54142097 61.48901367 43.390625 C54.45406849 52.87813959 53.72279794 60.75470105 53.9375 72.375 C53.93441619 73.99740871 53.92727757 75.61981495 53.91601562 77.2421875 C53.88999617 81.16512134 53.94648576 85.074195 54 89 C47.07 89 40.14 89 33 89 C33.06703125 86.70546875 33.1340625 84.4109375 33.203125 82.046875 C33.50541106 64.3047275 33.04125498 51.11703547 21.90185547 36.59521484 C18.48122162 31.92752064 15.55439125 26.93956633 12.56008911 21.99246216 C11.52883749 20.29740001 10.48130986 18.61227358 9.43334961 16.92749023 C8.78503174 15.88407471 8.13671387 14.84065918 7.46875 13.765625 C6.89576172 12.84555664 6.32277344 11.92548828 5.73242188 10.97753906 C3.65642124 7.40948611 1.8461192 3.6922384 0 0 Z " fill="#012B46" transform="translate(799,662)"/>
<path d="M0 0 C23.76 0 47.52 0 72 0 C72 6.27 72 12.54 72 19 C63.42 19 54.84 19 46 19 C46 42.1 46 65.2 46 89 C39.07 89 32.14 89 25 89 C25 65.9 25 42.8 25 19 C16.75 19 8.5 19 0 19 C0 12.73 0 6.46 0 0 Z " fill="#022C47" transform="translate(536,662)"/>
<path d="M0 0 C7.03192045 4.37301771 10.26846951 9.52625545 13.03515625 17.265625 C14.35510417 25.14561485 13.06289543 32.36946623 9.03515625 39.265625 C4.68768548 45.27366816 -0.82586294 48.45679778 -7.96484375 50.265625 C-16.04889204 51.48514706 -23.37697349 49.57275136 -30.0078125 44.79296875 C-35.50462534 39.83528894 -38.33240494 33.82961642 -39.34375 26.53125 C-39.71373704 18.08122332 -37.54063006 10.69003096 -31.77734375 4.390625 C-22.62753243 -3.80931184 -11.09585481 -5.38758268 0 0 Z " fill="#E6E7E8" transform="translate(671.96484375,682.734375)"/>
<path d="M0 0 C0.77090973 0.11132263 1.54181946 0.22264526 2.33609009 0.33734131 C43.92713188 6.37587219 43.92713188 6.37587219 50.625 13.25 C53.2048859 17.31828161 54.54059896 20.04626757 54.5625 24.9375 C54.57925781 25.80632812 54.59601563 26.67515625 54.61328125 27.5703125 C54.49339844 28.31023437 54.37351562 29.05015625 54.25 29.8125 C46.58469802 34.92270132 34.212442 33.0606055 25.18066406 33.10766602 C23.64704164 33.11919579 22.11345965 33.1396637 20.58007812 33.16918945 C8.28331139 33.40455314 -3.24226418 32.94322378 -13.125 24.6875 C-19.83952601 18.04927542 -24.96329744 10.44618184 -28.75 1.8125 C-28.75 0.8225 -28.75 -0.1675 -28.75 -1.1875 C-20.93386322 -5.09556839 -8.38697987 -1.23115525 0 0 Z " fill="#E6E7E8" transform="translate(577.75,399.1875)"/>
<path d="M0 0 C6.93 0 13.86 0 21 0 C21 29.37 21 58.74 21 89 C14.07 89 7.14 89 0 89 C0 59.63 0 30.26 0 0 Z " fill="#022B46" transform="translate(237,662)"/>
<path d="M0 0 C25.31453362 0 25.31453362 0 32.109375 5.80078125 C37.42704494 11.45904575 40.11826019 17.00110086 40.4375 24.8125 C40.18671372 32.83766083 38.23274445 39.26948007 32.375 44.9375 C22.40066832 52.65486612 12.91716839 51 0 51 C0 34.17 0 17.34 0 0 Z " fill="#E6E7E8" transform="translate(161,681)"/>
<path d="M0 0 C5.36547669 4.08242791 8.29225473 9.58547284 10 16 C10.41573144 19.11781642 10.47760089 22.16999075 10.4375 25.3125 C10.42992676 26.14410645 10.42235352 26.97571289 10.41455078 27.83251953 C10.20292199 35.76473746 9.11809185 43.46252016 3.125 49.1875 C-0.43026548 51.24955398 -1.97327363 51.75501119 -6 51 C-11.36752164 48.37100981 -14.67458974 44.43831005 -17 39 C-19.07562441 27.9913085 -19.74078415 15.95850312 -14 6 C-10.29160892 0.65555403 -6.66690101 -1.64867408 0 0 Z " fill="#E6E7E8" transform="translate(503,450)"/>
<path d="M0 0 C27.39 0 54.78 0 83 0 C83 6.84628585 82.99111177 8.0698031 79 13 C76.10780574 14.44609713 73.56617507 14.16742501 70.3347168 14.20874023 C69.6499527 14.21852402 68.9651886 14.2283078 68.25967407 14.23838806 C65.9895421 14.26834528 63.71946904 14.28972814 61.44921875 14.30859375 C60.28636321 14.31845149 60.28636321 14.31845149 59.10001564 14.32850838 C54.99646453 14.3611035 50.89293942 14.38555386 46.78930664 14.4050293 C43.39308917 14.42284504 39.99770165 14.45766716 36.60180664 14.50756836 C32.5015653 14.5677504 28.40209365 14.59850177 24.30143166 14.60820198 C22.73967345 14.61676151 21.17793608 14.63559235 19.61643028 14.6649456 C17.42786473 14.70387089 15.24229641 14.70489612 13.0534668 14.69702148 C11.18720894 14.71248268 11.18720894 14.71248268 9.2832489 14.72825623 C5.75100404 13.9447703 4.27785762 12.81769427 1.94343281 10.06924534 C1 8 1 8 0 0 Z " fill="#E8E8E9" transform="translate(654,415)"/>
<path d="M0 0 C3.3 -0.061875 6.6 -0.12375 10 -0.1875 C11.53527344 -0.22846802 11.53527344 -0.22846802 13.1015625 -0.27026367 C20.13010119 -0.3335042 25.89661555 0.43970783 31.5 5.0625 C33.70881881 9.38810351 33.89036914 13.2437546 33 18 C30.99155808 21.88192924 28.05379869 24.40879778 24 26 C21.34277344 26.22705078 21.34277344 26.22705078 18.359375 26.1953125 C17.39483398 26.19031738 16.43029297 26.18532227 15.43652344 26.18017578 C14.2199707 26.16196777 13.00341797 26.14375977 11.75 26.125 C7.8725 26.08375 3.995 26.0425 0 26 C0 17.42 0 8.84 0 0 Z " fill="#E4E6E7" transform="translate(593,574)"/>
<path d="M0 0 C3.465 -0.0825 6.93 -0.165 10.5 -0.25 C12.11358398 -0.30462402 12.11358398 -0.30462402 13.75976562 -0.36035156 C19.81967425 -0.42967155 25.14824677 0.04296172 30 4 C32.52592575 8.24523162 32.68340752 12.16424301 32 17 C29.84009877 20.97421826 27.30839817 22.68112026 23.15991211 24.39355469 C18.86992214 25.59806866 14.48037434 25.30434945 10.0625 25.1875 C6.741875 25.125625 3.42125 25.06375 0 25 C0 16.75 0 8.5 0 0 Z " fill="#E7E7E8" transform="translate(742,680)"/>
<path d="M0 0 C3.85806371 0.67685328 5.13605427 1.65163316 7.51953125 4.7265625 C10.29055329 9.77044532 10.95041087 14.69761572 10.9375 20.375 C10.93661377 21.07584717 10.93572754 21.77669434 10.93481445 22.4987793 C10.78525181 29.09851551 9.44156351 35.18869839 5.109375 40.359375 C3.5625 41.625 3.5625 41.625 0.625 42.0625 C-2.4375 41.625 -2.4375 41.625 -4.5625 40.1875 C-9.50592309 33.43148845 -10.81134095 27.73495506 -10.875 19.4375 C-10.88499023 18.66519043 -10.89498047 17.89288086 -10.90527344 17.09716797 C-10.81503556 11.11697509 -9.27139351 7.11385548 -5.6875 2.25 C-3.4375 0.625 -3.4375 0.625 0 0 Z " fill="#E6E7E8" transform="translate(297.4375,444.375)"/>
<path d="M0 0 C3.50625 -0.061875 7.0125 -0.12375 10.625 -0.1875 C11.71893066 -0.21481201 12.81286133 -0.24212402 13.93994141 -0.27026367 C19.35076755 -0.31642097 23.4138569 -0.21898056 28 3 C30.97443034 5.9807321 31.45384521 8.27779976 31.5 12.4375 C31.39552022 16.5562031 31.21830016 17.70499978 28.6875 21.125 C24.88079978 23.78083737 22.20279521 24.12266738 17.67578125 24.09765625 C16.74934814 24.09515869 15.82291504 24.09266113 14.8684082 24.09008789 C13.6949585 24.08098389 12.52150879 24.07187988 11.3125 24.0625 C7.579375 24.041875 3.84625 24.02125 0 24 C0 16.08 0 8.16 0 0 Z " fill="#E6E6E8" transform="translate(297,680)"/>
<path d="M0 0 C22.11 0 44.22 0 67 0 C67 0.33 67 0.66 67 1 C45.22 1 23.44 1 1 1 C1 30.7 1 60.4 1 91 C22.78 91 44.56 91 67 91 C67 84.73 67 78.46 67 72 C52.15 72 37.3 72 22 72 C22 66.72 22 61.44 22 56 C36.19 56 50.38 56 65 56 C65 56.33 65 56.66 65 57 C51.14 57 37.28 57 23 57 C23 61.62 23 66.24 23 71 C38.18 71 53.36 71 69 71 C69 77.93 69 84.86 69 92 C67.15202799 93.84797201 64.13203923 93.12775947 61.66015625 93.12939453 C60.66748245 93.13202301 60.66748245 93.13202301 59.65475464 93.13470459 C57.4573101 93.13912217 55.25994542 93.13618547 53.0625 93.1328125 C51.54174789 93.13348557 50.02099588 93.13445561 48.50024414 93.13571167 C45.30907164 93.13718851 42.11792708 93.13503452 38.92675781 93.13037109 C34.8273547 93.1246738 30.72801704 93.12795288 26.62861633 93.13394356 C23.48717756 93.13754954 20.34575442 93.13641042 17.20431519 93.13381577 C15.69237256 93.1331466 14.18042854 93.13397457 12.66848755 93.13629532 C10.55890113 93.13882245 8.44942213 93.13498044 6.33984375 93.12939453 C5.13706787 93.12859894 3.93429199 93.12780334 2.69506836 93.12698364 C0 93 0 93 -1 92 C-1.10052064 89.21075164 -1.13615888 86.44623227 -1.12939453 83.65649414 C-1.13114685 82.78173935 -1.13289917 81.90698456 -1.13470459 81.00572205 C-1.1391248 78.09884691 -1.13618427 75.19203206 -1.1328125 72.28515625 C-1.13348555 70.27355436 -1.13445559 68.26195256 -1.13571167 66.25035095 C-1.13718892 62.02765125 -1.13503344 57.80497265 -1.13037109 53.58227539 C-1.12467744 48.16019285 -1.12795034 42.73815985 -1.13394356 37.31607914 C-1.13755155 33.15978113 -1.13640942 29.00349493 -1.13381577 24.84719658 C-1.13314697 22.8476403 -1.13397328 20.84808295 -1.13629532 18.84852791 C-1.13882532 16.05662307 -1.13497612 13.26479918 -1.12939453 10.47290039 C-1.13141876 9.64009552 -1.13344299 8.80729065 -1.13552856 7.94924927 C-1.11426321 2.22852641 -1.11426321 2.22852641 0 0 Z " fill="#ECEDEE" transform="translate(365,660)"/>
<path d="M0 0 C3.00479673 4.50719509 4.55829665 9.53040158 6.42333984 14.59716797 C7.12339392 16.49564447 7.83276383 18.39045732 8.54296875 20.28515625 C8.98511719 21.48011719 9.42726563 22.67507813 9.8828125 23.90625 C10.28902832 25.00259766 10.69524414 26.09894531 11.11376953 27.22851562 C12 30 12 30 12 33 C4.08 33 -3.84 33 -12 33 C-11.23153577 28.3892146 -10.40075903 25.02280578 -8.75 20.76171875 C-8.08484375 19.03791992 -8.08484375 19.03791992 -7.40625 17.27929688 C-6.9421875 16.09400391 -6.478125 14.90871094 -6 13.6875 C-5.5359375 12.48287109 -5.071875 11.27824219 -4.59375 10.03710938 C-1.14210829 1.14210829 -1.14210829 1.14210829 0 0 Z " fill="#E6E8E9" transform="translate(512,577)"/>
<path d="M0 0 C12.313125 -0.061875 12.313125 -0.061875 24.875 -0.125 C28.76321533 -0.15231201 28.76321533 -0.15231201 32.72998047 -0.18017578 C34.77571403 -0.18601487 36.82144991 -0.19111181 38.8671875 -0.1953125 C39.93654541 -0.20554443 41.00590332 -0.21577637 42.10766602 -0.22631836 C43.12256104 -0.22656006 44.13745605 -0.22680176 45.18310547 -0.22705078 C46.06690887 -0.231492 46.95071228 -0.23593323 47.86129761 -0.24050903 C50 0 50 0 52 2 C35.5 2 19 2 2 2 C2 30.38 2 58.76 2 88 C7.94 88 13.88 88 20 88 C20 78.43 20 68.86 20 59 C20.33 59 20.66 59 21 59 C21 68.9 21 78.8 21 89 C14.07 89 7.14 89 0 89 C0 59.63 0 30.26 0 0 Z " fill="#031F3E" transform="translate(721,662)"/>
<path d="M0 0 C13.53 0 27.06 0 41 0 C40.67 0.66 40.34 1.32 40 2 C27.46 2 14.92 2 2 2 C2 30.38 2 58.76 2 88 C7.94 88 13.88 88 20 88 C20 78.43 20 68.86 20 59 C20.33 59 20.66 59 21 59 C21 68.9 21 78.8 21 89 C14.07 89 7.14 89 0 89 C0 59.63 0 30.26 0 0 Z " fill="#001B38" transform="translate(276,662)"/>
<path d="M0 0 C23.76 0 47.52 0 72 0 C72 6.27 72 12.54 72 19 C64.08 19 56.16 19 48 19 C48 18.67 48 18.34 48 18 C55.26 18 62.52 18 70 18 C70 12.72 70 7.44 70 2 C47.23 2 24.46 2 1 2 C1 7.28 1 12.56 1 18 C8.92 18 16.84 18 25 18 C25 18.33 25 18.66 25 19 C16.75 19 8.5 19 0 19 C0 12.73 0 6.46 0 0 Z " fill="#041734" transform="translate(536,662)"/>
<path d="M0 0 C27.39 0 54.78 0 83 0 C82.67 1.32 82.34 2.64 82 4 C82 3.34 82 2.68 82 2 C55.6 2 29.2 2 2 2 C1.67 3.32 1.34 4.64 1 6 C0.67 4.02 0.34 2.04 0 0 Z " fill="#F7F6F4" transform="translate(654,415)"/>
<path d="M0 0 C0.33 0.99 0.66 1.98 1 3 C1.99 3.33 2.98 3.66 4 4 C7.29527735 7.29527735 6.60089732 11.5697764 6.8125 16.0625 C6.87630859 16.97966797 6.94011719 17.89683594 7.00585938 18.84179688 C7.32463182 25.17683794 6.44831802 30.14838465 4 36 C1.525 36.495 1.525 36.495 -1 37 C-0.83701416 35.99445068 -0.67402832 34.98890137 -0.50610352 33.95288086 C-0.02073787 30.1619715 0.11404492 26.57246647 0.09765625 22.75390625 C0.0962413 22.09792953 0.09482635 21.44195282 0.09336853 20.76609802 C0.08783031 18.69818298 0.07529002 16.63038158 0.0625 14.5625 C0.05747699 13.14909012 0.0529155 11.73567852 0.04882812 10.32226562 C0.03788126 6.88147432 0.02066038 3.44074828 0 0 Z " fill="#C0CED2" transform="translate(533,462)"/>
<path d="M0 0 C4.95 0 9.9 0 15 0 C15 0.33 15 0.66 15 1 C10.71 1 6.42 1 2 1 C2 16.84 2 32.68 2 49 C9.26 48.67 16.52 48.34 24 48 C22 50 22 50 18 51 C12.06 51 6.12 51 0 51 C0 34.17 0 17.34 0 0 Z " fill="#CDD6DB" transform="translate(161,681)"/>
<path d="M0 0 C0.33 0 0.66 0 1 0 C1 2.64 1 5.28 1 8 C2.29736084 7.99476318 3.59472168 7.98952637 4.93139648 7.98413086 C9.72647415 7.96608531 14.5215488 7.95456963 19.31665039 7.94506836 C21.39543156 7.94002712 23.47420916 7.93319426 25.55297852 7.92456055 C28.53402586 7.91248578 31.51502649 7.90676976 34.49609375 7.90234375 C35.89921059 7.89460182 35.89921059 7.89460182 37.33067322 7.88670349 C38.19149002 7.88662796 39.05230682 7.88655243 39.93920898 7.88647461 C41.08171364 7.88314369 41.08171364 7.88314369 42.24729919 7.87974548 C44 8 44 8 45 9 C45.08651611 10.41570123 45.10704904 11.835595 45.09765625 13.25390625 C45.09443359 14.10791016 45.09121094 14.96191406 45.08789062 15.84179688 C45.07532227 17.18854492 45.07532227 17.18854492 45.0625 18.5625 C45.05798828 19.46419922 45.05347656 20.36589844 45.04882812 21.29492188 C45.03700225 23.53001314 45.0205222 25.76497437 45 28 C42.66672559 29.1666372 41.41763902 29.08993787 38.82568359 29.02172852 C37.53457169 28.99158409 37.53457169 28.99158409 36.21737671 28.96083069 C35.28712677 28.93379562 34.35687683 28.90676056 33.3984375 28.87890625 C32.44683746 28.85529526 31.49523743 28.83168427 30.51480103 28.80735779 C27.4680522 28.73063367 24.42155199 28.64664697 21.375 28.5625 C19.31251227 28.50928808 17.25001231 28.45654762 15.1875 28.40429688 C10.12484184 28.27500668 5.06239495 28.13920166 0 28 C0 33.28 0 38.56 0 44 C-0.33 44 -0.66 44 -1 44 C-1 38.39 -1 32.78 -1 27 C13.52 27 28.04 27 43 27 C43 21.06 43 15.12 43 9 C28.81 9 14.62 9 0 9 C0 6.03 0 3.06 0 0 Z " fill="#D5DDE1" transform="translate(387,688)"/>
<path d="M0 0 C5.28 0 10.56 0 16 0 C15.67 0.66 15.34 1.32 15 2 C10.71 2 6.42 2 2 2 C2 8.93 2 15.86 2 23 C8.27 23 14.54 23 21 23 C21 23.66 21 24.32 21 25 C14.07 25 7.14 25 0 25 C0 16.75 0 8.5 0 0 Z " fill="#D1DADD" transform="translate(742,680)"/>
<path d="M0 0 C6.6 0 13.2 0 20 0 C20 0.66 20 1.32 20 2 C14.06 2 8.12 2 2 2 C2 8.93 2 15.86 2 23 C8.27 23 14.54 23 21 23 C21 23.33 21 23.66 21 24 C14.07 24 7.14 24 0 24 C0 16.08 0 8.16 0 0 Z " fill="#F4F5F4" transform="translate(297,680)"/>
<path d="M0 0 C0.33 0 0.66 0 1 0 C1.12117188 1.21558594 1.24234375 2.43117188 1.3671875 3.68359375 C1.53597078 5.26828117 1.70526816 6.8529139 1.875 8.4375 C1.95363281 9.23994141 2.03226562 10.04238281 2.11328125 10.86914062 C2.33845763 12.92170994 2.66222587 14.96293009 3 17 C3.66 17.33 4.32 17.66 5 18 C5 20.97 5 23.94 5 27 C1 29 1 29 0 29 C-0.91283429 22.83836855 -1.11021576 16.78050374 -1.125 10.5625 C-1.12951172 9.75699707 -1.13402344 8.95149414 -1.13867188 8.12158203 C-1.12374089 2.24748177 -1.12374089 2.24748177 0 0 Z " fill="#DADFE2" transform="translate(459,460)"/>
<path d="M0 0 C1.27116378 2.54232756 0.71965206 3.31715682 0 6 C-0.08803767 7.34681025 -0.13058109 8.69719225 -0.1328125 10.046875 C-0.13474609 11.1915625 -0.13474609 11.1915625 -0.13671875 12.359375 C-0.13285156 13.14828125 -0.12898438 13.9371875 -0.125 14.75 C-0.12886719 15.5234375 -0.13273437 16.296875 -0.13671875 17.09375 C-0.12823958 22.14733753 0.28048775 26.99767677 1 32 C0.34 32 -0.32 32 -1 32 C-2.98971208 26.03086375 -3.63079174 20.26795421 -4 14 C-4.06574219 13.07960938 -4.13148438 12.15921875 -4.19921875 11.2109375 C-4.48066684 4.63087523 -4.48066684 4.63087523 -2 1.375 C-1.34 0.92125 -0.68 0.4675 0 0 Z " fill="#D6DDE0" transform="translate(374,586)"/>
<path d="M0 0 C7.92 0 15.84 0 24 0 C25.340625 2.248125 26.68125 4.49625 28.0625 6.8125 C28.48926025 7.51608643 28.91602051 8.21967285 29.35571289 8.94458008 C30.31416442 10.58713435 31.15985979 12.29389968 32 14 C31.67 14.99 31.34 15.98 31 17 C27.04 10.07 27.04 10.07 23 3 C16.73 3 10.46 3 4 3 C3.67 3.66 3.34 4.32 3 5 C2.01 3.35 1.02 1.7 0 0 Z " fill="#051C3A" transform="translate(799,662)"/>
<path d="M0 0 C1.65 0 3.3 0 5 0 C5.50757862 1.41396902 6.00574925 2.83131729 6.5 4.25 C6.7784375 5.03890625 7.056875 5.8278125 7.34375 6.640625 C8 9 8 9 8 13 C6.02 13.99 4.04 14.98 2 16 C2.04125 14.948125 2.0825 13.89625 2.125 12.8125 C2.00635755 9.19390531 1.40444123 7.24777034 0 4 C0 2.68 0 1.36 0 0 Z " fill="#DCE0E2" transform="translate(321,434)"/>
<path d="M0 0 C0.33 0 0.66 0 1 0 C1 8.58 1 17.16 1 26 C0.67 26 0.34 26 0 26 C-0.66 21.38 -1.32 16.76 -2 12 C-2.33 13.98 -2.66 15.96 -3 18 C-3.33 18 -3.66 18 -4 18 C-4 13.38 -4 8.76 -4 4 C-3.01 4.33 -2.02 4.66 -1 5 C-0.67 3.35 -0.34 1.7 0 0 Z " fill="#F2F2F2" transform="translate(271,453)"/>
<path d="M0 0 C0.66 0.33 1.32 0.66 2 1 C1.49210937 1.38929688 0.98421875 1.77859375 0.4609375 2.1796875 C-5.16416767 6.75140219 -8.61233788 11.62246942 -12 18 C-13.33332095 15.3333581 -12.67102033 13.83319697 -12 11 C-12.66 10.67 -13.32 10.34 -14 10 C-13.67 7.69 -13.34 5.38 -13 3 C-12.01 3 -11.02 3 -10 3 C-9.34 4.32 -8.68 5.64 -8 7 C-4.04 3.535 -4.04 3.535 0 0 Z " fill="#EEEEEF" transform="translate(288,423)"/>
<path d="M0 0 C2.22189824 2.22189824 2.92598892 4.08482708 4 7 C4.33 7 4.66 7 5 7 C5.33 5.02 5.66 3.04 6 1 C6.33 1 6.66 1 7 1 C7.77528479 4.42573937 8.11918778 7.57239245 8.09765625 11.08203125 C8.09443359 12.01337891 8.09121094 12.94472656 8.08789062 13.90429688 C8.07951172 14.86400391 8.07113281 15.82371094 8.0625 16.8125 C8.05798828 17.79154297 8.05347656 18.77058594 8.04882812 19.77929688 C8.03708684 22.18626111 8.02066419 24.59309857 8 27 C7.67 27 7.34 27 7 27 C6.67 24.03 6.34 21.06 6 18 C5.67 18 5.34 18 5 18 C4.87625 17.030625 4.7525 16.06125 4.625 15.0625 C4.315625 13.5465625 4.315625 13.5465625 4 12 C3.34 11.67 2.68 11.34 2 11 C0.68254143 7.12081644 0 4.11624135 0 0 Z " fill="#F4F3F3" transform="translate(532,454)"/>
<path d="M0 0 C7.92 0 15.84 0 24 0 C23.01 1.65 22.02 3.3 21 5 C20.67 4.34 20.34 3.68 20 3 C16.87507749 2.94208156 13.75029234 2.90643254 10.625 2.875 C9.29082031 2.84986328 9.29082031 2.84986328 7.9296875 2.82421875 C7.07890625 2.81777344 6.228125 2.81132813 5.3515625 2.8046875 C4.56604004 2.79421387 3.78051758 2.78374023 2.97119141 2.77294922 C0.765535 2.82009873 0.765535 2.82009873 -1 5 C-0.67 3.35 -0.34 1.7 0 0 Z " fill="#031C3A" transform="translate(862,662)"/>
<path d="M0 0 C0.33 0 0.66 0 1 0 C1.33 9.24 1.66 18.48 2 28 C1.01 28.33 0.02 28.66 -1 29 C-1.73323796 31.01508358 -1.73323796 31.01508358 -2 33 C-2.99 32.67 -3.98 32.34 -5 32 C-4.34 32 -3.68 32 -3 32 C-3.33 29.03 -3.66 26.06 -4 23 C-3.34 23.66 -2.68 24.32 -2 25 C-0.28556781 23.28556781 -0.76947033 20.99554759 -0.68359375 18.65234375 C-0.64169922 17.57275391 -0.59980469 16.49316406 -0.55664062 15.38085938 C-0.51732422 14.24455078 -0.47800781 13.10824219 -0.4375 11.9375 C-0.37272461 10.22723633 -0.37272461 10.22723633 -0.30664062 8.48242188 C-0.20017161 5.65507805 -0.09815793 2.82764262 0 0 Z " fill="#F5F5F4" transform="translate(464,463)"/>
<path d="M0 0 C2.52259061 1.97420135 2.9929808 2.96745642 3.6875 6.1875 C3.790625 7.115625 3.89375 8.04375 4 9 C3.67 8.34 3.34 7.68 3 7 C2.01 7 1.02 7 0 7 C0.2165625 7.59167969 0.433125 8.18335938 0.65625 8.79296875 C3.42179262 16.64147627 3.42179262 16.64147627 3 21 C0.54074507 18.54074507 -0.34371127 16.20353073 -1.6875 13 C-2.14511719 11.9275 -2.60273438 10.855 -3.07421875 9.75 C-3.37972656 8.8425 -3.68523437 7.935 -4 7 C-3.67 6.34 -3.34 5.68 -3 5 C-1.68 5 -0.36 5 1 5 C0.67 3.35 0.34 1.7 0 0 Z " fill="#EEF0F0" transform="translate(321,427)"/>
<path d="M0 0 C0.99 0.33 1.98 0.66 3 1 C3 2.65 3 4.3 3 6 C-0.63 6 -4.26 6 -8 6 C-8.66 9.63 -9.32 13.26 -10 17 C-10.33 17 -10.66 17 -11 17 C-11.08114106 15.22992286 -11.13925505 13.45877902 -11.1875 11.6875 C-11.22230469 10.70136719 -11.25710938 9.71523438 -11.29296875 8.69921875 C-11 6 -11 6 -9.75 4.15625 C-6.638305 2.10030866 -3.63719401 2.82112161 0 3 C0 2.01 0 1.02 0 0 Z " fill="#D0D9DC" transform="translate(765,400)"/>
<path d="M0 0 C0.33 0 0.66 0 1 0 C1.33 8.58 1.66 17.16 2 26 C-0.43229233 22.3515615 -1.12656826 19.87038005 -1.1328125 15.5859375 C-1.13410156 14.74289062 -1.13539063 13.89984375 -1.13671875 13.03125 C-1.13285156 12.1546875 -1.12898438 11.278125 -1.125 10.375 C-1.12886719 9.49070312 -1.13273437 8.60640625 -1.13671875 7.6953125 C-1.13542969 6.85484375 -1.13414062 6.014375 -1.1328125 5.1484375 C-1.13168457 4.37677246 -1.13055664 3.60510742 -1.12939453 2.81005859 C-1 1 -1 1 0 0 Z " fill="#203751" transform="translate(466,464)"/>
<path d="M0 0 C0.33 0 0.66 0 1 0 C1.04898438 0.90363281 1.09796875 1.80726563 1.1484375 2.73828125 C1.22320313 3.91777344 1.29796875 5.09726562 1.375 6.3125 C1.44460938 7.48425781 1.51421875 8.65601563 1.5859375 9.86328125 C1.78613747 13.15699887 1.78613747 13.15699887 4 16 C4.07905064 18.33199388 4.08798769 20.66832622 4 23 C2.68 23 1.36 23 0 23 C0 15.41 0 7.82 0 0 Z " fill="#F3F2F2" transform="translate(535,467)"/>
<path d="M0 0 C3 2 3 2 3.43237305 4.15478516 C3.45855713 5.02409668 3.48474121 5.8934082 3.51171875 6.7890625 C3.54716797 7.73007812 3.58261719 8.67109375 3.61914062 9.640625 C3.64169922 10.62546875 3.66425781 11.6103125 3.6875 12.625 C3.72166016 13.61757813 3.75582031 14.61015625 3.79101562 15.6328125 C3.87365657 18.08842906 3.94275127 20.54368141 4 23 C3.67 23 3.34 23 3 23 C2.690625 21.88625 2.38125 20.7725 2.0625 19.625 C1.17673517 16.2054845 1.17673517 16.2054845 0 14 C-0.07116382 11.62597499 -0.08409085 9.24999323 -0.0625 6.875 C-0.05347656 5.59367187 -0.04445313 4.31234375 -0.03515625 2.9921875 C-0.02355469 2.00476563 -0.01195312 1.01734375 0 0 Z " fill="#DCDEE0" transform="translate(536,466)"/>
<path d="M0 0 C1.93719378 -0.05406122 3.87481921 -0.09282025 5.8125 -0.125 C6.89144531 -0.14820313 7.97039062 -0.17140625 9.08203125 -0.1953125 C12 0 12 0 15 2 C11.99686252 3.50156874 9.20932478 3.09281204 5.875 3.0625 C4.59367187 3.05347656 3.31234375 3.04445313 1.9921875 3.03515625 C0.51105469 3.01775391 0.51105469 3.01775391 -1 3 C-0.67 2.01 -0.34 1.02 0 0 Z " fill="#DDE2E3" transform="translate(501,296)"/>
<path d="M0 0 C0.99 0 1.98 0 3 0 C3.66 1.98 4.32 3.96 5 6 C4.01 6.99 3.02 7.98 2 9 C0.50178941 5.62902617 0 3.79557881 0 0 Z " fill="#E6E6E7" transform="translate(321,434)"/>
<path d="M0 0 C0 0.99 0 1.98 0 3 C-5.445 4.485 -5.445 4.485 -11 6 C-11.66 5.34 -12.32 4.68 -13 4 C-11.2097939 3.32942113 -9.41778511 2.6636531 -7.625 2 C-6.62726563 1.62875 -5.62953125 1.2575 -4.6015625 0.875 C-2 0 -2 0 0 0 Z " fill="#DCE2E3" transform="translate(380,323)"/>
<path d="M0 0 C0.99 0.33 1.98 0.66 3 1 C4.42857143 9.57142857 4.42857143 9.57142857 2 13 C2 11.35 2 9.7 2 8 C1.34 8 0.68 8 0 8 C0 5.36 0 2.72 0 0 Z " fill="#D8DFE2" transform="translate(267,449)"/>
<path d="M0 0 C0.125 2.875 0.125 2.875 0 6 C-0.66 6.66 -1.32 7.32 -2 8 C-4.1385485 5.8614515 -4.42655063 4.86724686 -5 2 C-2 0 -2 0 0 0 Z " fill="#EFEFEE" transform="translate(329,447)"/>
<path d="M0 0 C0.33 0.66 0.66 1.32 1 2 C-1.1293893 5.19408396 -2.76812741 6.09402386 -6 8 C-6.33 8.66 -6.66 9.32 -7 10 C-7.99 9.67 -8.98 9.34 -10 9 C-8.71142987 7.68445979 -7.41904109 6.37265903 -6.125 5.0625 C-5.04605469 3.96615234 -5.04605469 3.96615234 -3.9453125 2.84765625 C-2 1 -2 1 0 0 Z " fill="#0F2643" transform="translate(631,669)"/>
<path d="M0 0 C4.50884026 2.31883213 6.93906776 5.06451569 10 9 C7 9 7 9 4.3125 6.625 C2 4 2 4 2 2 C1.34 2 0.68 2 0 2 C0 1.34 0 0.68 0 0 Z " fill="#1A324B" transform="translate(516,724)"/>
<path d="M0 0 C0.66 0.33 1.32 0.66 2 1 C0.8553125 2.0828125 0.8553125 2.0828125 -0.3125 3.1875 C-3.044086 5.83926978 -3.044086 5.83926978 -4.6875 8.8125 C-5.120625 9.534375 -5.55375 10.25625 -6 11 C-6.66 11 -7.32 11 -8 11 C-6.52670958 5.99081256 -3.72484762 3.48192278 0 0 Z " fill="#061B38" transform="translate(459,671)"/>
<path d="M0 0 C1.27230469 0.01804687 2.54460937 0.03609375 3.85546875 0.0546875 C5.31919922 0.08949219 5.31919922 0.08949219 6.8125 0.125 C6.8125 0.455 6.8125 0.785 6.8125 1.125 C2.3575 1.62 2.3575 1.62 -2.1875 2.125 C-2.1875 2.455 -2.1875 2.785 -2.1875 3.125 C-4.8275 2.795 -7.4675 2.465 -10.1875 2.125 C-6.4507157 -0.36618953 -4.44298181 -0.0815226 0 0 Z " fill="#D1D7DA" transform="translate(369.1875,485.875)"/>
<path d="M0 0 C3.83663072 1.34929464 6.65172569 3.07751025 9.8125 5.625 C10.99779297 6.57246094 10.99779297 6.57246094 12.20703125 7.5390625 C12.79871094 8.02117187 13.39039063 8.50328125 14 9 C10.20246301 9 8.93581015 7.81129297 5.875 5.625 C4.98554687 4.99851562 4.09609375 4.37203125 3.1796875 3.7265625 C1 2 1 2 0 0 Z " fill="#0C2140" transform="translate(646,352)"/>
<path d="M0 0 C0 0.66 0 1.32 0 2 C-6.93 1.505 -6.93 1.505 -14 1 C-14 0.67 -14 0.34 -14 0 C-9.20699867 -1.39151652 -4.84864218 -0.68662689 0 0 Z " fill="#233D56" transform="translate(582,398)"/>
<path d="M0 0 C4 6 4 6 8 12 C5 12 5 12 3.61328125 10.64453125 C-0.69371531 4.57852107 -0.69371531 4.57852107 0 0 Z " fill="#162E49" transform="translate(634,715)"/>
<path d="M0 0 C5.61 0.33 11.22 0.66 17 1 C17 1.33 17 1.66 17 2 C11.555 2.495 11.555 2.495 6 3 C6 2.34 6 1.68 6 1 C4.02 1 2.04 1 0 1 C0 0.67 0 0.34 0 0 Z " fill="#31536B" transform="translate(354,358)"/>
<path d="M0 0 C4.41889613 1.35021826 6.34345343 3.26115668 9 7 C6 7 6 7 4 6 C4 5.01 4 4.02 4 3 C2.68 2.67 1.36 2.34 0 2 C0 1.34 0 0.68 0 0 Z " fill="#132A46" transform="translate(686,669)"/>
<path d="M0 0 C0.99 0.33 1.98 0.66 3 1 C0.16569547 4.2542015 -1.68607774 5.5206753 -6 6 C-2.25 1.125 -2.25 1.125 0 0 Z " fill="#07213F" transform="translate(289,424)"/>
<path d="M0 0 C3.36720387 1.39332574 4.9859524 2.9789286 7 6 C4 6 4 6 1.8125 4.125 C0 2 0 2 0 0 Z " fill="#18314C" transform="translate(519,671)"/>
<path d="M0 0 C-5.29230769 3.07692308 -5.29230769 3.07692308 -8.875 2.6875 C-9.57625 2.460625 -10.2775 2.23375 -11 2 C-7.00042393 -0.06874624 -4.43559483 -1.37656391 0 0 Z " fill="#EEF0F1" transform="translate(545,524)"/>
<path d="M0 0 C1.5 1.375 1.5 1.375 3 3 C3 3.66 3 4.32 3 5 C5.31 5.33 7.62 5.66 10 6 C10 6.33 10 6.66 10 7 C6.70985003 7.22432841 4.57722754 7.30380397 1.625 5.75 C0 4 0 4 0 0 Z " fill="#1D3854" transform="translate(290,480)"/>
<path d="M0 0 C0.66 0.33 1.32 0.66 2 1 C2 3.31 2 5.62 2 8 C1.01 7.67 0.02 7.34 -1 7 C-1.04254356 5.00045254 -1.04080783 2.99958364 -1 1 C-0.67 0.67 -0.34 0.34 0 0 Z " fill="#DCE0E2" transform="translate(250,392)"/>
</svg>
