<?xml version="1.0" standalone="no"?>
<!DOCTYPE svg PUBLIC "-//W3C//DTD SVG 20010904//EN"
 "http://www.w3.org/TR/2001/REC-SVG-20010904/DTD/svg10.dtd">
<svg version="1.0" xmlns="http://www.w3.org/2000/svg"
 width="1500.000000pt" height="1000.000000pt" viewBox="0 0 1500.000000 1000.000000"
 preserveAspectRatio="xMidYMid meet">

<g transform="translate(0.000000,1000.000000) scale(0.100000,-0.100000)"
fill="#000000" stroke="none">
<path d="M0 5000 l0 -5000 7500 0 7500 0 0 5000 0 5000 -7500 0 -7500 0 0
-5000z m12060 3506 l0 -1294 48 -7 c355 -51 933 -210 1237 -340 487 -208 839
-484 1011 -791 50 -89 104 -223 104 -259 0 -24 -8 -15 -51 60 -203 356 -496
581 -979 752 -476 169 -988 285 -1595 360 -121 15 -221 31 -223 35 -2 4 -10 4
-17 1 -8 -2 -92 2 -187 11 -381 35 -856 63 -1478 87 -151 5 -1011 15 -1910 20
-899 5 -1664 13 -1700 17 l-65 7 85 12 c210 31 861 97 1250 128 1566 121 3004
112 4026 -25 82 -11 157 -20 167 -20 16 0 17 61 17 1132 0 622 3 1128 7 1124
4 -3 6 -236 5 -516 l-2 -509 22 -14 c13 -8 46 -17 73 -20 28 -3 62 -10 78 -16
27 -10 27 -11 29 -108 l1 -98 8 125 c5 69 10 417 12 774 l3 648 -551 -6 c-302
-3 -2398 -6 -4657 -6 l-4108 0 0 -879 c0 -691 -3 -881 -12 -889 -7 -6 -42 -17
-78 -26 -36 -9 -76 -21 -90 -27 -13 -6 -39 -12 -56 -15 -18 -2 -53 -11 -79
-19 -25 -9 -70 -20 -98 -25 -183 -32 -344 -63 -439 -86 -118 -28 -101 -28
-518 -9 -252 12 -381 16 -570 18 l-205 2 -17 -35 c-9 -19 -17 -28 -17 -20 -1
8 8 30 20 49 l21 34 236 -7 c130 -3 395 -13 588 -22 l352 -15 98 25 c55 14
187 41 294 61 170 31 299 62 508 121 l52 15 0 874 c0 480 3 880 6 889 6 15
427 16 4675 16 l4669 0 0 -1294z m-4675 1017 c2398 -2 4371 -4 4385 -6 14 -2
-1956 -4 -4378 -3 l-4402 1 0 -707 c0 -390 2 -708 4 -708 2 0 228 61 502 135
568 154 722 190 1024 239 648 106 1111 143 1675 133 437 -8 728 -37 1105 -113
736 -146 1406 -424 2050 -849 179 -118 299 -205 284 -205 -6 0 -85 26 -175 58
-90 33 -201 72 -246 87 -46 16 -83 32 -83 36 0 5 -7 6 -15 3 -8 -4 -15 -1 -15
6 0 6 4 9 9 5 5 -3 13 0 16 6 4 6 19 8 34 5 25 -6 25 -6 7 9 -14 11 -16 15 -5
15 12 0 12 2 -1 10 -13 8 -13 10 2 10 9 0 20 -4 23 -10 3 -5 1 -10 -6 -10 -10
0 -10 -3 -1 -12 19 -19 15 -41 -5 -33 -37 14 -47 16 -29 4 11 -7 30 -13 43
-15 20 -2 23 1 17 18 -6 20 -12 45 -13 61 -1 4 -11 7 -23 7 -19 0 -20 2 -8 10
12 8 12 10 1 10 -7 0 -29 14 -48 30 -18 17 -40 30 -48 30 -8 0 -15 7 -15 15 0
8 -5 15 -12 15 -6 0 -27 12 -46 27 -20 15 -32 20 -27 12 8 -12 6 -12 -8 -1 -9
8 -22 10 -29 6 -7 -4 -10 -4 -6 1 9 9 -45 45 -67 45 -9 0 -33 11 -56 25 -22
14 -43 24 -48 21 -4 -3 -15 4 -24 15 -9 10 -24 19 -32 19 -17 0 -50 17 -77 39
-12 9 -18 10 -18 3 0 -7 -7 -9 -17 -5 -11 4 -14 3 -9 -6 4 -6 16 -9 25 -6 11
3 25 -3 36 -15 10 -11 25 -20 34 -20 12 0 13 -2 3 -8 -9 -6 -7 -13 7 -29 24
-26 12 -55 -16 -36 -10 6 -17 16 -16 21 1 5 -5 8 -15 6 -18 -5 -58 47 -64 82
-4 22 -41 56 -48 44 -16 -26 -76 -7 -117 37 -12 12 -29 23 -36 23 -8 0 -17 7
-21 15 -3 8 -14 15 -25 15 -11 0 -27 7 -36 16 -8 9 -22 14 -29 11 -8 -3 -23 3
-34 14 -12 10 -25 19 -29 19 -4 0 -46 15 -92 34 -47 19 -92 32 -100 31 -9 -2
-19 -4 -23 -4 -5 -1 -8 -6 -8 -12 0 -6 9 -8 20 -4 15 5 18 3 14 -9 -3 -9 -2
-16 2 -16 5 0 32 -21 59 -45 28 -25 58 -48 68 -51 10 -3 30 -17 45 -31 15 -14
44 -36 65 -49 20 -14 37 -29 37 -34 0 -6 7 -10 16 -10 8 0 29 -13 47 -30 18
-16 38 -30 46 -30 8 0 11 -6 7 -16 -5 -12 -2 -15 11 -12 10 3 32 -3 48 -14 17
-10 40 -23 53 -29 12 -7 22 -18 22 -25 0 -7 5 -16 12 -20 6 -4 8 -3 4 4 -4 6
1 10 13 9 11 0 18 -4 16 -7 -2 -3 6 -12 17 -19 19 -12 20 -11 14 6 -4 13 0 11
15 -7 11 -14 18 -20 16 -15 -3 6 4 12 16 12 17 2 19 0 7 -7 -12 -8 -12 -10 5
-10 13 0 16 -3 8 -11 -7 -7 -43 0 -119 25 -572 183 -1151 327 -1536 382 -71
10 -128 21 -128 25 0 4 -8 5 -18 2 -10 -2 -82 3 -159 11 -78 9 -165 16 -193
16 -27 0 -50 5 -50 10 0 6 7 10 16 10 8 0 12 5 9 10 -3 6 0 10 7 11 7 0 4 4
-7 9 -11 5 -14 9 -7 9 10 1 12 10 7 31 -4 16 -4 39 0 50 6 18 15 20 110 20 63
0 106 4 110 11 5 7 101 9 314 6 190 -3 313 -1 325 5 10 6 16 6 13 1 -6 -9 70
-10 78 -1 3 2 -32 10 -78 18 -45 7 -115 21 -155 31 -40 10 -82 16 -93 14 -10
-2 -19 1 -19 6 0 6 -9 8 -20 5 -56 -16 -65 -17 -50 -7 19 14 0 14 -37 1 -27
-10 -27 -9 -8 6 20 16 20 16 -2 11 -14 -3 -23 0 -24 6 0 8 -2 7 -6 -1 -4 -10
-8 -10 -19 -1 -16 13 -19 -2 -4 -17 7 -7 -9 -11 -46 -12 -31 -1 -54 1 -52 4 3
2 22 5 42 6 67 2 38 24 -44 32 -19 2 -50 7 -67 11 -22 5 -33 4 -33 -4 0 -6 7
-11 16 -11 8 0 12 -5 9 -10 -4 -7 -13 -6 -27 1 -11 6 -33 8 -49 5 -16 -3 -48
1 -71 10 -28 10 -44 11 -46 4 -5 -13 -82 -13 -82 0 0 6 -15 10 -32 10 -43 0
-82 11 -70 19 6 3 -40 5 -101 3 -61 -2 -114 -6 -117 -10 -6 -9 -480 -9 -480 0
0 3 5 8 10 10 6 2 -7 4 -29 4 -22 1 -39 -1 -37 -5 2 -3 -37 -6 -87 -6 -112 -1
-413 -22 -427 -30 -3 -2 -41 -6 -85 -9 -44 -4 -109 -11 -145 -15 -36 -5 -72
-9 -80 -10 -8 0 -40 -5 -70 -10 -69 -13 -100 -18 -175 -27 -33 -3 -64 -9 -69
-12 -5 -3 -23 -6 -40 -8 -17 -2 -44 -6 -61 -9 -16 -4 -41 -8 -55 -9 -45 -6
-185 -40 -190 -46 -3 -3 -21 -6 -41 -7 -44 -2 -194 -38 -241 -58 -20 -8 -38
-12 -41 -9 -3 3 -19 -2 -36 -11 -18 -9 -37 -13 -43 -9 -7 5 -8 3 -3 -6 6 -9 2
-10 -16 -5 -22 7 -23 7 -9 -10 14 -17 13 -17 -7 -7 -12 7 -24 8 -27 3 -3 -4
-30 -11 -59 -15 -30 -3 -94 -18 -143 -32 -49 -15 -114 -32 -144 -40 -30 -7
-89 -22 -130 -34 -112 -32 -162 -43 -197 -44 -17 -1 -29 -4 -26 -8 2 -5 -1 -8
-6 -8 -7 0 -11 18 -10 43 1 23 1 345 0 716 -1 623 0 675 16 693 11 12 22 16
32 11 9 -4 1978 -9 4376 -10z m-1385 -993 c0 -6 -47 -10 -120 -10 -73 0 -120
-4 -120 -10 0 -5 -18 -10 -40 -10 -22 0 -40 5 -40 10 0 6 18 10 40 10 22 0 40
5 40 10 0 6 47 10 120 10 73 0 120 -4 120 -10z m810 -20 c12 -8 11 -10 -7 -10
-12 0 -25 5 -28 10 -8 13 15 13 35 0z m-90 -18 c0 -5 -13 -7 -30 -4 -16 2 -30
6 -30 8 0 2 14 4 30 4 17 0 30 -4 30 -8z m-833 -84 c111 3 218 1 237 -2 l36
-7 0 -70 0 -70 145 2 c80 1 148 -1 152 -4 3 -4 -124 -7 -284 -7 -414 0 -584
-15 -1048 -96 -640 -110 -998 -196 -1148 -276 -70 -38 -83 -57 -63 -95 30 -55
237 -268 297 -304 72 -45 212 -91 374 -123 180 -37 673 -111 995 -150 157 -19
321 -40 365 -45 89 -11 -40 -10 -1745 11 -694 9 -939 15 -775 18 l240 5 -3 75
c-4 132 -11 166 -36 178 -12 5 -42 8 -66 6 -25 -2 -79 2 -120 9 -41 7 -92 13
-112 12 -21 0 -38 2 -38 5 0 3 -19 5 -42 6 -39 1 -139 7 -293 19 -33 2 -204
14 -380 26 -176 12 -324 25 -330 30 -20 19 29 49 90 55 37 4 65 12 73 22 6 9
12 11 12 6 0 -16 116 -1 203 26 19 6 25 5 20 -3 -4 -7 0 -8 13 -2 10 5 32 8
47 7 15 -1 25 3 22 8 -5 9 28 14 72 13 7 -1 10 3 8 7 -7 12 86 25 94 14 7 -11
41 -15 41 -5 0 14 -57 26 -97 21 -24 -4 -43 -3 -43 2 0 4 8 8 18 9 15 0 14 2
-3 10 -14 6 -8 7 22 3 35 -5 41 -3 40 13 -2 17 9 18 199 14 l200 -3 31 31 c29
28 72 44 58 21 -3 -5 2 -10 12 -10 22 0 38 23 48 70 16 72 58 105 71 55 3 -14
10 -25 14 -25 4 0 10 -17 13 -38 9 -52 28 -76 55 -68 19 6 22 15 22 64 0 52
10 144 25 230 5 28 9 31 21 22 11 -10 17 -10 29 0 8 7 15 8 15 3 0 -5 15 -16
33 -24 38 -17 183 -11 195 8 9 15 93 44 105 36 6 -4 7 -1 2 7 -10 16 83 6 200
-20 44 -10 109 -23 145 -29 36 -7 75 -14 88 -16 15 -4 22 -1 22 10 0 25 68 20
94 -8 22 -24 34 -24 109 -7 56 14 63 25 10 16 -21 -3 -32 -3 -25 0 18 8 15 26
-5 23 -22 -3 -63 10 -63 20 0 4 -27 16 -60 27 -33 10 -60 21 -60 24 0 3 -35
23 -77 45 -43 22 -80 43 -83 46 -3 3 -27 14 -53 24 -26 10 -46 23 -44 29 5 16
83 26 222 30 66 2 179 9 250 15 131 11 479 16 494 7 4 -3 36 0 72 5 107 18
339 26 384 13 25 -6 113 -9 242 -6z m523 -74 c0 -13 5 -24 12 -24 9 0 9 -3 1
-11 -8 -8 -16 -8 -30 0 -10 6 -12 11 -5 11 9 0 10 5 4 18 -11 20 -5 45 9 36 5
-3 9 -16 9 -30z m-2213 20 c-3 -3 -12 -4 -19 -1 -8 3 -5 6 6 6 11 1 17 -2 13
-5z m-121 -486 c4 -7 4 -10 -1 -6 -4 4 -14 3 -22 -3 -7 -6 -13 -8 -13 -4 0 4
-7 2 -15 -5 -9 -7 -18 -11 -21 -8 -2 3 10 13 28 21 40 20 35 20 44 5z m4731
-4 c13 -4 21 -10 18 -14 -3 -5 -1 -11 5 -15 16 -10 12 -52 -6 -59 -9 -3 -26 4
-41 18 -20 19 -24 30 -19 50 7 28 9 29 43 20z m-89 -101 c16 -16 16 -16 -1
-10 -10 4 -23 7 -28 7 -6 0 -7 5 -4 10 9 14 14 13 33 -7z m62 -16 c0 -5 6 -7
13 -4 12 4 91 -32 84 -39 -5 -5 -137 39 -137 46 0 3 9 6 20 6 11 0 20 -4 20
-9z m-8238 -129 c-5 -231 -8 -253 -10 -65 -1 103 1 187 6 187 4 0 6 -55 4
-122z m8383 75 c18 -14 18 -15 2 -9 -10 3 -23 6 -28 6 -5 0 -9 5 -9 10 0 14
12 12 35 -7z m-7575 -31 c0 -5 -27 -16 -60 -25 -92 -26 -230 -89 -308 -140
-97 -65 -203 -181 -247 -270 -37 -76 -75 -209 -75 -261 1 -27 7 -18 48 59 74
142 127 212 251 335 118 118 230 200 354 261 45 22 63 36 54 42 -8 5 -5 7 8 5
35 -6 20 -22 -76 -78 -149 -88 -169 -101 -169 -115 0 -12 -19 -25 -46 -30 -20
-5 -53 -38 -47 -48 4 -6 1 -7 -7 -2 -17 11 -177 -158 -239 -253 -27 -41 -66
-109 -87 -153 -49 -99 -69 -104 -61 -16 12 129 42 220 108 322 28 43 136 155
184 193 62 47 305 154 413 181 1 1 2 -3 2 -7z m7735 -22 c7 -12 -2 -12 -30 0
-19 8 -19 9 2 9 12 1 25 -3 28 -9z m-7165 -105 c0 -8 6 -15 13 -15 8 0 7 -4
-3 -10 -8 -5 -30 -10 -48 -10 -20 0 -35 -6 -38 -15 -5 -12 -29 -15 -125 -15
-65 0 -119 4 -119 9 0 4 32 12 71 15 40 4 79 11 88 15 41 20 80 29 84 18 2 -7
12 -5 27 6 30 21 50 22 50 2z m-745 -45 c-3 -5 -12 -10 -18 -10 -7 0 -6 4 3
10 19 12 23 12 15 0z m25 -43 c0 -5 -4 -5 -10 -2 -5 3 -10 14 -10 23 0 15 2
15 10 2 5 -8 10 -19 10 -23z m-653 -194 c-3 -10 -5 -2 -5 17 0 19 2 27 5 18 2
-10 2 -26 0 -35z m10 -70 c-3 -10 -5 -4 -5 12 0 17 2 24 5 18 2 -7 2 -21 0
-30z m1243 7 c0 -5 -12 -10 -27 -9 l-28 1 25 8 c14 4 26 8 28 9 1 1 2 -3 2 -9z
m78 3 c-10 -2 -28 -2 -40 0 -13 2 -5 4 17 4 22 1 32 -1 23 -4z m850 0 c-53 -2
-143 -2 -200 0 -57 1 -13 3 97 3 110 0 156 -2 103 -3z m-1038 -23 c0 -5 -8
-10 -17 -10 -15 0 -16 2 -3 10 19 12 20 12 20 0z m43 3 c-7 -2 -19 -2 -25 0
-7 3 -2 5 12 5 14 0 19 -2 13 -5z m-98 -23 c-11 -5 -27 -9 -35 -9 -13 -1 -13
0 0 9 8 5 24 9 35 9 l20 0 -20 -9z m-1068 -22 c-3 -8 -6 -5 -6 6 -1 11 2 17 5
13 3 -3 4 -12 1 -19z m973 -7 c-8 -5 -26 -11 -40 -15 -21 -5 -20 -3 5 9 32 15
60 20 35 6z m-963 -43 c-3 -8 -6 -5 -6 6 -1 11 2 17 5 13 3 -3 4 -12 1 -19z
m798 -31 c-172 -89 -306 -189 -433 -322 -40 -42 -70 -81 -66 -86 4 -7 14 0 24
16 10 15 31 36 46 46 16 10 25 19 21 19 -11 0 71 67 180 148 29 22 51 41 48
43 -2 3 4 5 15 6 18 2 18 1 0 -17 -10 -10 -33 -26 -50 -35 -17 -9 -34 -23 -37
-31 -3 -7 -11 -14 -18 -14 -8 0 -78 -63 -156 -140 -128 -126 -168 -156 -153
-115 5 12 -14 15 -112 17 -83 2 -119 7 -122 16 -2 6 1 12 8 12 6 0 8 -4 5 -10
-4 -6 33 -10 104 -10 l109 0 117 119 c105 107 254 229 353 288 76 45 187 102
202 102 8 0 -30 -23 -85 -52z m120 3 c3 -5 1 -10 -4 -10 -6 0 -11 5 -11 10 0
6 2 10 4 10 3 0 8 -4 11 -10z m-29 -9 c-6 -9 -46 -22 -46 -15 0 3 10 9 23 14
29 11 29 11 23 1z m-56 -25 c0 -5 -86 -56 -94 -56 -3 0 -3 7 1 15 3 9 8 14 10
11 3 -2 19 4 36 15 31 18 47 24 47 15z m-122 -69 c-17 -17 -48 -29 -48 -18 0
8 37 29 53 30 5 1 2 -5 -5 -12z m-658 -114 c-11 -17 -11 -17 -6 0 3 10 6 24 7
30 0 9 2 9 5 0 3 -7 0 -20 -6 -30z m-14 -59 c-4 -14 -9 -24 -12 -21 -3 2 -2
17 2 31 3 15 9 25 11 22 3 -3 2 -17 -1 -32z m-19 -56 c-3 -8 -6 -5 -6 6 -1 11
2 17 5 13 3 -3 4 -12 1 -19z m-10 -40 c-3 -8 -6 -5 -6 6 -1 11 2 17 5 13 3 -3
4 -12 1 -19z m-10 -50 c-3 -7 -5 -2 -5 12 0 14 2 19 5 13 2 -7 2 -19 0 -25z
m6902 -398 c102 -212 281 -584 398 -825 116 -242 280 -582 363 -755 84 -173
185 -383 225 -467 86 -179 133 -236 234 -286 61 -30 73 -32 166 -32 115 0 158
16 215 81 64 73 60 -3 60 1230 0 620 3 1125 6 1121 3 -3 8 -495 10 -1094 4
-787 2 -1105 -7 -1150 -9 -51 -19 -70 -60 -116 -26 -30 -45 -58 -41 -62 4 -3
3 -6 -3 -4 -17 4 -64 -12 -76 -27 -10 -12 73 -14 572 -13 321 1 575 4 564 8
-34 11 -105 51 -105 59 0 5 -7 17 -16 28 -8 10 -12 13 -8 5 4 -9 3 -12 -4 -7
-6 4 -9 13 -5 21 3 9 -1 15 -11 15 -10 0 -13 5 -9 17 4 10 2 14 -4 10 -18 -11
-22 53 -28 473 -3 223 -8 415 -11 428 -4 21 -9 23 -44 18 -66 -9 -339 -7 -450
3 -122 11 -190 39 -190 76 0 19 6 22 38 22 67 0 296 123 317 170 16 38 169 70
181 38 4 -8 14 -15 23 -15 14 0 14 2 1 11 -12 8 -11 9 5 5 11 -3 37 -7 58 -10
34 -5 37 -4 37 19 l0 25 -97 -5 c-54 -3 -122 -2 -150 1 l-53 6 0 109 c0 105
-1 109 -27 133 -16 15 -30 21 -33 15 -4 -6 -43 -9 -96 -7 -88 3 -89 3 -64 20
14 10 35 19 45 21 11 2 33 10 48 17 l28 14 -23 12 c-13 7 -40 16 -60 19 -28 5
-38 12 -38 26 0 16 7 19 43 19 23 1 53 7 67 14 21 12 30 12 57 1 17 -7 34 -11
37 -7 3 3 6 36 6 73 l0 68 -42 12 c-24 6 -54 17 -68 24 -14 7 -37 13 -52 13
-51 -1 -57 13 -53 125 2 59 8 103 15 105 6 2 2 14 -10 29 -11 14 -22 40 -26
59 -8 43 -22 52 -30 19 -8 -32 -44 -34 -63 -3 -7 12 -16 51 -18 87 -5 84 -11
113 -22 106 -5 -2 -12 2 -15 11 -3 8 -2 12 4 9 6 -4 10 12 10 40 0 40 -3 47
-26 55 -34 13 -214 13 -214 0 0 -5 -5 -10 -11 -10 -5 0 -8 4 -5 8 3 5 -17 7
-44 4 -46 -4 -50 -3 -50 17 l0 22 863 -4 c762 -3 873 -5 957 -20 275 -50 430
-123 557 -261 121 -132 158 -258 150 -504 -5 -158 -14 -209 -57 -325 -46 -123
-153 -249 -267 -312 -66 -38 -111 -49 -53 -14 19 12 37 24 40 28 3 4 35 30 71
58 36 29 72 60 80 69 8 10 -15 -6 -50 -34 -84 -67 -266 -142 -346 -142 -11 0
25 -22 80 -49 176 -87 265 -184 450 -491 302 -499 422 -630 606 -660 35 -5 67
-10 72 -10 4 0 7 -9 7 -20 0 -20 -7 -20 -324 -20 -179 0 -327 3 -329 8 -3 4
133 6 301 5 274 -2 302 0 257 12 -27 7 -53 11 -57 8 -5 -2 -8 1 -8 6 0 6 -8
11 -17 11 -10 0 -29 9 -43 20 -14 11 -31 20 -37 20 -7 0 -13 5 -13 10 0 6 -7
10 -15 10 -8 0 -15 5 -15 11 0 5 -5 7 -12 3 -8 -5 -9 -2 -5 10 4 9 3 15 -2 12
-11 -7 -146 142 -146 162 0 8 -26 46 -63 93 -13 16 -21 29 -17 29 3 0 -6 12
-20 28 -14 15 -28 38 -32 52 -7 30 -23 51 -33 45 -7 -4 -52 91 -47 99 4 7 -26
35 -33 31 -4 -3 -11 2 -14 11 -4 10 -2 13 6 7 7 -4 -4 13 -25 38 -38 47 -46
65 -24 54 6 -4 0 3 -15 15 -16 12 -28 27 -28 33 0 6 7 2 15 -9 14 -18 14 -17
4 9 -7 15 -14 25 -17 22 -7 -6 -38 37 -34 48 1 5 -2 6 -7 3 -13 -8 -34 21 -25
35 4 7 3 9 -3 6 -5 -3 -27 13 -49 36 -22 23 -58 56 -80 74 l-41 32 -99 -8
c-106 -8 -137 -17 -113 -32 10 -6 8 -9 -8 -9 -14 0 -23 6 -23 15 0 9 -10 16
-22 16 -90 5 -236 5 -306 0 -52 -4 -82 -2 -83 4 0 6 -3 4 -6 -4 -5 -11 -7 -11
-15 0 -8 11 -9 11 -5 -1 2 -8 9 -16 15 -16 7 -1 19 -2 27 -3 20 -1 20 -70 1
-85 -15 -11 -13 -39 9 -118 4 -17 3 -28 -3 -28 -5 0 -17 39 -26 87 -23 114
-70 255 -99 298 -26 38 -88 91 -118 100 -10 4 -19 14 -19 24 0 15 15 19 89 28
109 12 169 40 236 108 58 59 98 135 127 243 29 107 31 365 4 462 -64 232 -212
330 -498 330 l-88 0 0 -1123 c0 -1253 -3 -1190 68 -1264 49 -50 95 -72 171
-79 50 -6 61 -10 61 -25 0 -18 -43 -19 -1420 -19 -1413 0 -1420 0 -1420 20 0
15 7 20 29 20 65 0 134 39 164 93 21 38 23 18 2 -23 -18 -36 -64 -69 -118 -86
-36 -11 60 -13 612 -13 578 -1 653 1 635 14 -10 8 -27 15 -36 15 -9 0 -30 11
-46 25 -17 14 -34 25 -40 25 -18 0 -110 118 -123 157 -6 21 -20 49 -29 63 -10
14 -24 41 -32 60 -34 81 -72 149 -79 144 -8 -5 -13 10 -10 29 1 5 -12 33 -29
63 -16 30 -30 56 -30 59 -1 6 -37 91 -57 132 -8 18 -19 30 -24 27 -5 -3 -6 3
-2 12 4 12 3 15 -5 10 -8 -4 -10 -2 -6 8 6 16 -65 169 -98 211 -11 14 -24 23
-29 20 -5 -4 -14 -3 -21 1 -8 5 -5 11 7 20 18 13 18 15 -1 56 -10 23 -19 45
-19 48 0 3 -17 40 -38 82 -21 43 -35 83 -31 89 4 7 3 9 -3 6 -6 -4 -23 19 -39
51 -15 31 -31 59 -35 62 -3 3 -14 32 -24 65 -9 33 -22 67 -29 75 -24 28 -30
44 -15 36 8 -4 6 -1 -4 7 -10 8 -17 19 -16 23 4 26 -2 45 -13 38 -7 -4 -10 -4
-6 0 7 9 -26 79 -51 110 -9 11 -10 16 -4 12 9 -5 11 -2 7 8 -3 9 -11 13 -17 9
-6 -4 -8 0 -4 10 3 10 3 17 -1 17 -5 0 -14 16 -21 36 -7 19 -15 33 -18 30 -9
-9 -125 233 -117 246 4 7 3 8 -4 4 -8 -5 -12 0 -12 13 0 12 -5 21 -12 21 -6 0
-8 3 -5 6 3 4 -3 18 -13 32 -11 13 -20 31 -20 39 0 8 -5 11 -12 7 -7 -4 -8 -3
-4 5 5 7 -1 20 -14 31 -12 10 -23 25 -24 32 -1 7 -7 22 -13 33 -9 16 -11 8 -9
-43 2 -64 -2 -67 -28 -17 -10 19 -16 24 -16 13 0 -10 -7 -18 -15 -18 -8 0 -15
-9 -15 -19 0 -11 -4 -23 -10 -26 -5 -3 -10 -15 -10 -25 0 -10 -5 -20 -11 -22
-6 -2 -14 -27 -17 -56 -2 -29 -8 -52 -13 -52 -5 0 -9 -18 -9 -40 0 -38 2 -40
30 -40 28 0 30 -3 30 -35 0 -24 -5 -35 -15 -35 -9 0 -15 9 -15 21 0 18 -2 19
-15 9 -8 -7 -15 -18 -15 -25 0 -7 -7 -16 -16 -19 -14 -5 -16 -17 -11 -70 7
-70 4 -73 -58 -82 -44 -6 -54 -26 -48 -97 6 -64 16 -87 39 -87 30 0 44 -31 44
-95 l0 -64 33 -6 c17 -3 113 -7 212 -10 194 -5 255 -12 255 -27 0 -5 -4 -6
-10 -3 -5 3 -10 0 -10 -9 0 -16 -2 -17 -240 -46 -205 -26 -197 -23 -175 -56 9
-15 15 -36 13 -48 -4 -19 -1 -22 19 -18 13 2 23 -1 23 -7 0 -6 6 -11 13 -11 7
0 23 -13 35 -30 15 -20 31 -30 48 -30 14 0 23 -4 19 -10 -4 -6 -11 -8 -16 -5
-5 3 -6 -1 -3 -9 6 -15 61 -36 94 -36 21 0 40 20 40 42 0 10 7 18 15 18 8 0
15 -9 15 -19 0 -32 11 -51 39 -65 32 -17 248 -40 299 -32 20 4 43 2 50 -2 8
-6 -17 -11 -67 -15 -77 -6 -232 -24 -278 -33 -19 -4 -23 -11 -23 -39 0 -19 5
-35 11 -35 15 0 61 -49 79 -83 8 -16 23 -33 33 -38 18 -10 17 -11 -5 -30 -20
-18 -24 -18 -34 -5 -6 9 -16 16 -22 16 -23 0 -83 44 -97 70 -8 15 -30 35 -50
44 -19 9 -35 21 -35 26 0 6 -10 10 -21 10 -16 0 -20 5 -16 20 4 16 -1 21 -29
26 -19 3 -41 4 -49 0 -9 -3 -14 -2 -11 3 3 5 -1 11 -9 14 -9 4 -12 1 -9 -7 6
-14 -23 -15 -46 -1 -9 6 -6 -4 7 -26 12 -18 27 -34 33 -34 5 0 10 -3 10 -7 0
-5 0 -13 0 -20 0 -6 -7 -3 -15 8 -14 18 -14 17 -5 -9 5 -15 16 -40 25 -57 8
-16 15 -35 15 -42 -1 -18 -23 32 -182 412 -77 184 -141 336 -142 337 -5 6 -77
-177 -75 -189 4 -17 -7 -48 -42 -126 -16 -34 -29 -65 -29 -68 0 -3 -16 -38
-36 -77 -20 -40 -37 -79 -39 -87 -7 -32 -35 -87 -51 -101 -9 -8 -28 -36 -40
-64 l-24 -50 335 -3 c303 -2 368 -7 319 -26 -9 -3 -142 -6 -297 -6 -155 0
-302 -5 -326 -11 -59 -13 -77 1 -55 43 8 16 13 37 9 46 -3 9 -3 13 1 9 4 -4
13 6 21 21 25 47 62 141 55 141 -4 -1 -10 0 -14 1 -5 1 -16 3 -25 4 -10 1 -33
6 -52 10 -33 8 -34 9 -16 23 12 8 30 11 47 7 20 -4 28 -2 28 8 0 10 3 9 11 -2
8 -11 12 -12 16 -2 2 6 11 12 18 12 19 0 46 46 38 66 -4 10 -2 15 3 11 13 -7
77 140 68 155 -4 6 -3 8 3 5 6 -4 18 10 27 33 19 47 20 53 6 45 -5 -3 -10 1
-10 10 0 11 5 15 14 12 10 -4 18 8 26 44 7 27 16 47 20 44 4 -3 11 2 14 11 3
8 2 12 -4 9 -14 -9 -12 9 2 23 9 9 9 12 -1 12 -7 0 -10 4 -7 8 6 9 4 10 -66
16 -93 9 -89 37 7 51 44 6 75 19 72 28 -4 12 -30 17 -95 19 -22 1 -31 6 -28
14 3 7 -2 15 -10 18 -8 3 -12 1 -9 -4 3 -5 -6 -22 -20 -36 -18 -18 -24 -32
-19 -46 3 -12 2 -18 -3 -15 -10 6 -60 -90 -56 -104 1 -4 -4 -13 -12 -19 -8 -7
-15 -16 -15 -21 0 -5 -16 -43 -36 -84 -20 -41 -33 -78 -30 -84 3 -5 -1 -12
-10 -15 -10 -4 -14 -14 -11 -26 3 -11 1 -18 -4 -14 -5 3 -9 -1 -9 -10 0 -8 -4
-16 -8 -18 -10 -4 -52 -105 -52 -124 0 -8 -6 -14 -12 -15 -10 0 -10 -2 0 -6 9
-4 8 -9 -6 -22 -11 -9 -30 -39 -42 -66 -12 -28 -42 -91 -66 -142 -23 -50 -42
-105 -42 -121 1 -30 -21 -81 -22 -52 -1 8 -21 -27 -46 -78 -24 -52 -41 -98
-38 -104 5 -7 2 -8 -6 -3 -10 6 -12 4 -7 -9 4 -10 3 -15 -3 -11 -6 3 -10 0
-10 -8 0 -8 -11 -35 -25 -61 -14 -26 -22 -52 -19 -58 4 -6 3 -8 -3 -5 -5 3
-16 -14 -25 -38 -10 -27 -13 -47 -7 -50 14 -9 11 -61 -4 -74 -8 -6 -18 -7 -22
-3 -5 4 -6 0 -3 -9 4 -9 1 -16 -7 -16 -8 0 -11 7 -7 16 5 14 3 14 -11 2 -9 -7
-17 -19 -17 -27 0 -7 -9 -18 -20 -24 -11 -6 -19 -16 -17 -22 1 -7 -3 -12 -10
-13 -24 0 -72 -53 -66 -73 4 -18 7 -19 34 -5 16 8 33 12 39 8 5 -3 10 -2 10 2
0 5 24 14 53 21 29 7 59 21 67 33 21 27 42 17 69 -31 12 -22 31 -45 42 -50 11
-6 64 -9 121 -8 87 3 99 5 78 14 -14 7 -42 30 -63 53 -32 36 -37 47 -37 91 0
49 29 137 84 250 14 29 23 57 20 61 -3 5 -2 9 3 9 4 0 16 21 26 48 10 26 23
55 28 65 5 10 7 23 3 29 -5 7 -2 8 6 3 9 -6 12 -4 8 6 -5 12 57 14 425 11 388
-3 432 -5 443 -20 7 -9 10 -19 7 -22 -2 -3 -9 3 -14 13 -9 16 -41 17 -423 17
l-414 0 -21 -49 c-12 -28 -18 -57 -14 -67 4 -12 3 -15 -5 -10 -8 5 -10 2 -6
-8 3 -9 1 -16 -6 -16 -6 0 -9 -4 -6 -9 8 -13 -19 -73 -29 -64 -4 5 -5 3 -1 -4
3 -6 -4 -36 -17 -65 -13 -29 -27 -61 -30 -71 -4 -10 -10 -16 -15 -13 -4 2 -8
-3 -9 -12 -1 -9 -5 -32 -9 -50 -14 -71 55 -146 147 -158 39 -5 49 -10 49 -25
0 -18 -17 -19 -430 -19 -413 0 -430 1 -430 19 0 15 10 20 58 25 118 13 234 92
286 194 14 27 200 434 414 903 215 470 431 943 481 1051 109 238 218 508 227
567 6 35 10 42 27 39 16 -2 59 -84 206 -388z m-2350 326 c134 -21 369 -78 477
-117 79 -29 84 -33 84 -60 0 -49 -29 -591 -36 -657 -9 -93 -30 -81 -71 42
-129 380 -347 571 -707 616 -180 23 -344 -3 -504 -82 -84 -41 -116 -63 -180
-127 -83 -83 -103 -108 -151 -189 -43 -74 -30 -64 22 16 42 64 155 187 164
178 2 -2 16 7 31 21 15 14 37 29 50 34 14 5 20 14 16 21 -4 7 -3 8 4 4 6 -4
25 0 43 9 17 9 33 14 37 11 3 -3 0 -6 -6 -6 -6 0 -17 -6 -24 -12 -7 -7 -35
-24 -60 -38 -104 -54 -248 -212 -317 -348 -58 -114 -112 -299 -131 -452 -15
-123 -12 -408 5 -540 72 -545 351 -876 770 -915 89 -8 293 10 393 36 286 72
439 261 557 689 13 47 24 78 24 69 1 -26 -40 -183 -51 -196 -6 -7 -8 -13 -4
-13 3 0 0 -16 -8 -35 -8 -19 -13 -35 -10 -35 3 0 0 -9 -6 -20 -8 -14 -8 -20 0
-20 6 0 8 -4 5 -10 -10 -17 7 -11 24 8 23 25 61 42 98 45 39 3 47 31 32 113
-6 31 -8 63 -5 71 3 8 3 20 -1 26 -5 7 -12 47 -18 90 -10 77 -24 99 -37 55
-10 -39 -9 -5 3 55 9 42 16 57 28 57 14 0 24 -51 64 -357 26 -197 45 -369 43
-382 -17 -81 -165 -230 -321 -323 -61 -37 -164 -82 -172 -75 -2 2 18 12 44 22
50 19 186 101 191 116 2 5 8 7 13 3 5 -3 9 0 9 5 0 6 8 11 18 11 14 0 15 2 2
10 -13 9 -13 10 1 10 19 0 112 88 158 150 24 32 16 25 -27 -22 -103 -110 -272
-212 -455 -273 -140 -46 -254 -65 -442 -72 -165 -6 -418 4 -411 16 3 4 44 3
93 -1 131 -11 370 -8 480 7 156 20 309 65 328 95 4 6 16 8 27 4 14 -4 18 -2
14 5 -5 7 -1 8 10 4 12 -4 15 -3 10 5 -4 8 -2 10 7 6 8 -3 18 -1 22 5 3 6 14
11 24 11 10 0 24 7 31 15 15 18 0 20 -20 3 -12 -11 -12 -10 -2 4 10 13 10 17
0 22 -7 3 -2 3 11 0 15 -4 21 -2 17 4 -3 6 0 9 6 8 7 -1 13 -6 13 -11 0 -6 -4
-9 -8 -7 -5 1 -6 -2 -2 -8 4 -6 15 -4 31 6 22 15 36 32 14 19 -5 -3 -10 -1
-10 5 0 6 -4 9 -9 6 -5 -4 -29 9 -54 28 -91 70 -129 78 -165 38 -13 -15 -22
-22 -18 -15 5 8 0 8 -18 0 -13 -7 -22 -15 -20 -19 3 -4 -3 -5 -12 -1 -12 4
-15 3 -10 -5 5 -8 1 -10 -10 -5 -10 4 -15 2 -11 -3 3 -5 -2 -10 -11 -11 -32
-3 -113 -29 -107 -35 3 -3 -7 -5 -22 -5 -16 0 -73 -8 -128 -17 -137 -24 -360
-16 -416 14 -11 7 -32 14 -47 16 -51 10 -219 114 -205 128 4 4 -1 4 -12 0 -15
-6 -17 -4 -12 10 4 9 3 15 -3 11 -17 -11 -119 102 -158 175 -13 25 -39 72 -58
106 -37 66 -74 175 -103 299 -79 338 -52 843 58 1110 32 76 31 62 11 335 -6
80 -14 170 -19 202 -4 31 -6 63 -5 72 3 18 -7 21 -22 7 -5 -6 -21 -12 -35 -14
-14 -3 -46 -15 -70 -28 -24 -13 -50 -22 -56 -21 -7 2 -13 -2 -13 -8 0 -5 -9
-10 -19 -10 -11 0 -23 -5 -27 -12 -5 -7 -3 -8 6 -3 9 5 11 4 6 -4 -4 -6 -11
-9 -16 -6 -5 3 -31 -6 -57 -20 -53 -29 -80 -52 -50 -42 11 4 16 3 12 -4 -4 -5
-15 -7 -26 -4 -12 4 -21 1 -25 -9 -3 -9 -12 -16 -19 -16 -16 0 -47 -35 -38
-44 4 -4 0 -4 -8 -1 -11 4 -38 -16 -84 -62 -95 -96 -171 -200 -233 -323 -29
-58 -50 -94 -46 -80 12 47 92 195 144 269 99 139 270 287 432 374 203 108 434
172 758 211 88 10 599 -3 699 -18z m3981 -162 c0 -2 -9 0 -20 6 -11 6 -20 13
-20 16 0 2 9 0 20 -6 11 -6 20 -13 20 -16z m20 -49 c0 -5 -5 -3 -10 5 -5 8
-10 20 -10 25 0 6 5 3 10 -5 5 -8 10 -19 10 -25z m20 -19 c0 -3 -4 -8 -10 -11
-5 -3 -10 -1 -10 4 0 6 5 11 10 11 6 0 10 -2 10 -4z m-4703 -42 c-3 -3 -12 -4
-19 -1 -8 3 -5 6 6 6 11 1 17 -2 13 -5z m-1037 -148 c0 -2 -8 -10 -17 -17 -16
-13 -17 -12 -4 4 13 16 21 21 21 13z m-329 -477 c-5 -13 -10 -19 -10 -12 -1
15 10 45 15 40 3 -2 0 -15 -5 -28z m-24 -81 c-3 -8 -6 -5 -6 6 -1 11 2 17 5
13 3 -3 4 -12 1 -19z m591 5 c39 -3 72 -10 72 -14 0 -5 -9 -9 -19 -9 -11 0
-21 -5 -23 -12 -5 -14 -190 2 -195 18 -5 16 38 34 67 28 14 -3 58 -7 98 -11z
m-601 -45 c-3 -8 -6 -5 -6 6 -1 11 2 17 5 13 3 -3 4 -12 1 -19z m-10 -50 c-3
-7 -5 -2 -5 12 0 14 2 19 5 13 2 -7 2 -19 0 -25z m-10 -60 c-3 -7 -5 -2 -5 12
0 14 2 19 5 13 2 -7 2 -19 0 -25z m-10 -85 c-3 -10 -5 -2 -5 17 0 19 2 27 5
18 2 -10 2 -26 0 -35z m-10 -220 c-2 -32 -3 -8 -3 52 0 61 1 87 3 58 2 -29 2
-78 0 -110z m3680 13 c-8 -8 -17 -12 -21 -9 -3 3 2 12 12 19 22 16 29 9 9 -10z
m-3670 -158 c-2 -13 -4 -5 -4 17 -1 22 1 32 4 23 2 -10 2 -28 0 -40z m10 -70
c-3 -8 -6 -5 -6 6 -1 11 2 17 5 13 3 -3 4 -12 1 -19z m10 -60 c-3 -8 -6 -5 -6
6 -1 11 2 17 5 13 3 -3 4 -12 1 -19z m2590 -60 c-3 -8 -6 -5 -6 6 -1 11 2 17
5 13 3 -3 4 -12 1 -19z m5173 -3 c0 -8 14 -28 30 -43 32 -32 42 -82 15 -82 -8
0 -15 -4 -15 -10 0 -5 11 -10 25 -10 14 0 25 -4 25 -10 0 -5 -18 -10 -40 -10
-22 0 -40 5 -40 10 0 6 -7 10 -15 10 -8 0 -15 5 -15 10 0 6 -7 10 -15 10 -10
0 -15 10 -15 30 0 20 5 30 15 30 11 0 15 11 15 40 0 29 4 40 15 40 8 0 15 -7
15 -15z m-7027 -21 l29 -6 -31 -19 c-26 -15 -51 -19 -133 -19 -112 0 -117 7
-23 39 57 19 82 20 158 5z m3987 -146 c0 -12 7 -30 17 -40 15 -17 15 -18 -5
-18 -20 0 -47 32 -36 43 3 3 1 8 -5 12 -6 3 -11 1 -11 -5 0 -6 -5 -8 -10 -5
-7 4 -3 14 11 26 25 22 39 17 39 -13z m2596 -15 c0 -18 -3 -33 -8 -33 -4 0 -8
6 -8 13 0 6 -3 21 -6 33 -3 13 -1 21 8 21 8 0 13 -13 14 -34z m-3606 -5 c0 -5
-10 -8 -22 -9 -64 -3 -111 -10 -128 -19 -35 -19 -118 -5 -97 16 19 19 247 30
247 12z m-266 -23 c-7 -16 -64 -21 -64 -6 0 12 18 19 47 20 16 1 21 -3 17 -14z
m3905 -103 c16 -45 26 -82 22 -82 -4 0 -18 33 -31 73 -13 39 -25 79 -28 87 -3
8 -2 13 1 9 4 -3 20 -42 36 -87z m-2573 68 c17 0 24 -6 24 -20 0 -25 -10 -25
-49 -2 -32 18 -43 39 -15 28 9 -3 27 -6 40 -6z m-2226 -56 c0 -8 -19 -13 -24
-6 -3 5 1 9 9 9 8 0 15 -2 15 -3z m-20 -28 c0 -3 -4 -8 -10 -11 -5 -3 -10 -1
-10 4 0 6 5 11 10 11 6 0 10 -2 10 -4z m1908 -71 c-3 -3 -9 2 -12 12 -6 14 -5
15 5 6 7 -7 10 -15 7 -18z m22 -50 c0 -5 -5 -3 -10 5 -5 8 -10 20 -10 25 0 6
5 3 10 -5 5 -8 10 -19 10 -25z m2969 -41 c16 -37 9 -39 -11 -3 -9 16 -14 29
-9 29 4 0 13 -12 20 -26z m-2939 -29 c0 -5 -5 -3 -10 5 -5 8 -10 20 -10 25 0
6 5 3 10 -5 5 -8 10 -19 10 -25z m18 -40 c-3 -3 -9 2 -12 12 -6 14 -5 15 5 6
7 -7 10 -15 7 -18z m21 -47 c6 -18 7 -28 2 -23 -10 12 -25 55 -18 55 3 0 10
-15 16 -32z m40 -118 c0 -9 -4 -8 -9 5 -5 11 -9 27 -9 35 0 9 4 8 9 -5 5 -11
9 -27 9 -35z m3021 15 c19 -22 8 -25 -12 -3 -10 10 -14 18 -9 18 5 0 14 -7 21
-15z m-3013 -77 c-3 -8 -6 -5 -6 6 -1 11 2 17 5 13 3 -3 4 -12 1 -19z m3088
12 c3 -5 1 -10 -4 -10 -6 0 -11 5 -11 10 0 6 2 10 4 10 3 0 8 -4 11 -10z
m-5305 -20 c-8 -5 -19 -10 -25 -10 -5 0 -3 5 5 10 8 5 20 10 25 10 6 0 3 -5
-5 -10z m5400 -42 c0 -3 -18 3 -40 15 -22 12 -40 25 -40 29 0 3 18 -3 40 -15
22 -12 40 -25 40 -29z m-7070 32 c13 -8 13 -10 -2 -10 -9 0 -20 5 -23 10 -8
13 5 13 25 0z m57 -36 c-7 -7 -37 7 -37 17 0 6 9 5 21 -1 11 -7 19 -14 16 -16z
m7134 -39 c48 -5 79 -16 79 -26 0 -5 -7 -9 -15 -9 -8 0 -15 3 -15 8 0 4 -10 8
-23 8 -32 3 -137 44 -137 55 0 5 17 0 39 -12 21 -11 54 -22 72 -24z m-7026 4
c63 -20 113 -46 65 -34 -43 11 -160 56 -160 62 0 3 8 2 18 -2 9 -4 44 -15 77
-26z m5195 -3 c0 -2 -8 -10 -17 -17 -16 -13 -17 -12 -4 4 13 16 21 21 21 13z
m-3040 -16 c0 -5 -5 -10 -11 -10 -5 0 -7 5 -4 10 3 6 8 10 11 10 2 0 4 -4 4
-10z m-790 -4 c0 -2 -7 -7 -16 -10 -8 -3 -12 -2 -9 4 6 10 25 14 25 6z m-1174
-44 c-7 -6 -96 21 -91 28 3 4 25 0 49 -8 25 -9 43 -18 42 -20z m6949 28 c3 -5
-1 -10 -10 -10 -9 0 -13 5 -10 10 3 6 8 10 10 10 2 0 7 -4 10 -10z m65 -10
c24 -8 24 -8 -7 -9 -17 -1 -35 4 -38 9 -7 11 9 11 45 0z m88 -17 c-10 -2 -28
-2 -40 0 -13 2 -5 4 17 4 22 1 32 -1 23 -4z m-7061 -9 c-3 -3 -12 -4 -19 -1
-8 3 -5 6 6 6 11 1 17 -2 13 -5z m7171 -1 c-16 -2 -40 -2 -55 0 -16 2 -3 4 27
4 30 0 43 -2 28 -4z m-7125 -10 c-7 -2 -19 -2 -25 0 -7 3 -2 5 12 5 14 0 19
-2 13 -5z m112 -21 c-6 -7 -95 10 -90 17 2 4 24 3 49 -3 25 -6 43 -12 41 -14z
m84 -8 c2 -2 -10 -4 -27 -4 -17 0 -34 4 -37 10 -5 9 53 3 64 -6z m2040 -786
c-1 -140 -2 -142 -14 -89 -26 105 -90 141 -252 141 -42 0 -74 2 -72 5 3 2 48
5 101 6 69 1 105 -3 127 -14 22 -11 31 -12 31 -4 0 7 8 0 18 -15 9 -16 21 -28
26 -28 4 0 3 6 -3 13 -6 8 -8 17 -4 20 3 4 0 7 -8 7 -12 0 -12 2 0 9 8 5 16
21 18 36 3 16 0 24 -6 20 -22 -13 -86 -16 -361 -15 -290 1 -380 6 -380 21 0 5
152 9 338 10 185 0 357 4 382 8 25 5 48 9 53 10 4 0 7 -63 6 -141z m961 122
c25 -5 71 -17 104 -27 l59 -17 -7 -74 c-3 -41 -6 -101 -6 -134 0 -58 -13 -77
-25 -35 -11 40 -39 102 -50 109 -6 5 -6 8 2 8 7 0 19 -12 27 -27 l15 -28 1 46
c0 26 3 60 6 76 5 28 3 31 -26 36 -17 4 -29 10 -27 14 3 5 -15 9 -39 11 -25 2
-55 7 -67 11 -12 5 -65 9 -118 10 -79 2 -98 -1 -102 -14 -4 -9 -1 -15 9 -15 8
0 13 4 9 9 -6 11 112 4 133 -8 9 -5 -14 -8 -54 -7 -38 0 -90 -5 -117 -13 -58
-17 -131 -79 -158 -135 l-20 -41 26 28 c31 35 33 26 2 -16 -112 -151 -92 -469
37 -605 66 -71 177 -98 298 -73 113 24 175 101 216 270 9 39 20 71 23 71 6 0
18 -72 35 -206 6 -49 5 -53 -31 -93 -42 -47 -141 -99 -200 -106 l-40 -5 35 10
c95 28 180 81 204 128 10 19 10 38 -1 95 -7 39 -15 72 -17 74 -1 2 -9 -16 -16
-39 -27 -92 -76 -165 -131 -193 -65 -34 -279 -59 -261 -31 3 5 -2 7 -11 3 -10
-3 -17 -2 -17 4 0 6 -5 7 -10 4 -6 -4 -18 -1 -27 7 -9 7 -26 18 -39 23 -23 10
-94 97 -94 115 0 6 -6 21 -14 33 -18 28 -46 154 -46 206 0 22 -5 43 -11 47 -6
3 -9 14 -6 24 2 10 1 24 -4 31 -6 10 -9 7 -9 -10 0 -13 -2 -22 -5 -19 -3 3 -3
25 1 48 l7 43 13 -29 c12 -29 12 -28 6 10 -4 31 -2 37 8 31 10 -6 12 -2 8 18
-3 15 -1 24 3 21 5 -3 9 3 9 13 0 10 9 33 20 51 11 18 18 37 15 43 -4 5 -1 9
5 9 7 0 9 7 6 16 -3 8 -2 12 4 9 5 -3 16 8 25 24 17 34 20 81 5 81 -5 0 -10
-4 -10 -10 0 -5 -7 -10 -15 -10 -8 0 -15 -4 -15 -10 0 -5 -4 -10 -9 -10 -17 0
0 38 22 49 19 10 19 11 2 5 -11 -3 -28 -7 -38 -9 -9 -2 -22 -7 -27 -10 -6 -3
-10 0 -11 7 0 10 -2 10 -6 0 -2 -6 -8 -10 -13 -7 -12 8 -105 -60 -102 -74 1
-7 -2 -10 -7 -7 -13 8 -66 -61 -90 -117 -18 -42 -18 -47 -4 -55 11 -6 12 -11
4 -16 -6 -4 -11 -1 -11 6 0 8 -5 6 -11 -5 -11 -18 -23 -227 -14 -227 3 0 9 10
14 22 l8 22 5 -22 c4 -12 2 -20 -3 -17 -17 11 -21 -45 -5 -79 18 -39 20 -50 6
-41 -35 21 -54 234 -30 339 44 197 205 326 455 366 68 10 268 5 335 -10z m725
5 c209 0 401 4 428 8 l47 8 0 -140 c0 -87 -4 -141 -10 -141 -5 0 -10 14 -10
30 0 68 -51 135 -112 147 -16 3 -28 8 -28 12 0 3 -38 5 -85 3 l-85 -3 0 -414
0 -414 23 -25 c12 -14 38 -29 57 -35 35 -9 34 -9 -17 -10 -29 -1 -55 4 -59 11
-5 7 -2 8 7 3 8 -4 4 2 -8 14 -13 12 -24 23 -25 24 0 1 -4 85 -7 186 -4 134
-9 185 -18 189 -7 2 -13 16 -14 30 0 15 -3 21 -6 15 -25 -62 -55 211 -32 292
10 34 13 37 20 20 6 -17 8 -17 8 -2 1 9 8 17 16 17 10 0 15 10 15 30 0 17 -4
30 -10 30 -5 0 -10 5 -10 10 0 6 6 10 13 10 7 0 17 8 23 18 9 14 26 17 98 17
47 0 86 3 86 8 0 4 -92 6 -205 5 -113 -2 -205 -1 -205 2 0 3 -11 5 -25 5 -14
0 -25 -6 -25 -12 0 -7 10 -13 23 -13 12 0 18 -4 12 -8 -6 -4 -8 -50 -4 -122 3
-63 6 -108 7 -100 1 8 11 -5 22 -29 24 -53 27 -143 5 -165 -8 -8 -15 -20 -15
-26 0 -6 -4 -9 -9 -6 -9 6 -21 -160 -21 -296 0 -58 -5 -99 -15 -117 -8 -16
-12 -30 -10 -33 3 -2 -17 -5 -43 -6 -41 -1 -44 0 -18 8 16 5 39 19 52 31 l24
22 0 420 0 419 -97 -4 c-140 -5 -192 -42 -209 -146 -11 -67 -19 -49 -15 30 2
40 6 65 8 55 4 -15 7 -14 25 8 36 47 88 65 183 65 69 0 85 3 85 15 0 12 -20
15 -119 15 -66 0 -131 4 -145 10 -25 9 -25 8 -28 -43 -3 -52 -3 -52 -8 16 l-5
68 45 -8 c25 -5 216 -8 425 -8z m1310 -10 c194 -50 329 -181 366 -356 14 -66
7 -312 -9 -332 -7 -8 -9 -17 -5 -20 3 -4 1 -7 -5 -7 -7 0 -11 -3 -11 -7 4 -24
-5 -45 -41 -101 -22 -34 -44 -62 -49 -62 -20 0 -19 16 1 39 17 19 14 17 -14
-6 -54 -46 -173 -101 -253 -118 -42 -9 -117 -14 -190 -13 l-120 1 141 7 c78 4
159 13 180 21 22 7 44 14 51 15 26 5 123 55 123 64 0 6 6 10 14 10 22 0 96 88
122 146 27 57 44 151 26 140 -6 -3 -13 -2 -16 2 -3 5 -28 6 -56 1 -27 -4 -76
-9 -109 -11 l-58 -3 -18 -69 c-35 -135 -95 -224 -174 -259 -46 -20 -186 -33
-176 -17 3 6 0 7 -8 4 -8 -3 -20 2 -27 10 -7 9 -16 13 -21 10 -5 -3 -9 0 -9 5
0 6 -6 11 -13 11 -17 0 -59 44 -55 58 2 5 -1 9 -5 9 -10 -2 -68 143 -61 154 7
12 -27 90 -37 84 -10 -7 -69 22 -69 33 0 33 69 204 71 177 1 -24 18 34 18 66
1 23 7 39 16 43 8 3 14 9 13 13 -1 4 2 19 6 32 6 16 4 27 -5 33 -10 7 -8 8 9
5 18 -4 22 -2 17 12 -3 10 1 24 10 31 16 14 21 35 5 25 -6 -4 -7 1 -3 11 5 13
3 15 -7 9 -7 -5 -5 4 6 18 19 27 34 34 34 18 0 -6 9 -9 20 -8 24 2 26 14 5 20
-11 3 -10 4 2 3 10 -1 17 -9 17 -18 -1 -10 4 -14 12 -11 15 5 14 24 -1 36 -6
5 -4 7 5 4 8 -2 14 -10 13 -16 -2 -6 2 -11 7 -11 6 0 10 5 10 10 0 6 11 10 25
10 14 0 25 4 25 10 0 6 19 8 46 5 25 -2 55 0 67 5 14 6 -21 8 -100 7 -70 -1
-119 -6 -115 -11 3 -5 -2 -7 -10 -3 -9 3 -28 -1 -43 -9 -16 -8 -37 -12 -49 -8
-20 6 -20 6 -2 -8 23 -18 9 -25 -47 -23 -32 1 -40 -2 -47 -21 -5 -12 -17 -27
-27 -33 -15 -9 -16 -10 -2 -11 9 0 22 7 29 15 7 8 18 15 24 15 6 0 4 -5 -4
-10 -12 -8 -13 -12 -2 -19 8 -4 14 -12 13 -17 0 -5 10 -8 22 -6 20 2 21 2 5
-11 -10 -8 -18 -19 -18 -26 0 -6 -9 -12 -20 -12 -37 -3 -41 -4 -50 -19 -8 -12
-11 -13 -19 -1 -5 8 -11 9 -15 3 -7 -12 -54 -13 -62 -1 -3 5 -10 7 -15 3 -6
-4 -6 -11 2 -20 6 -8 9 -17 5 -21 -3 -3 -6 -1 -6 5 0 7 -4 12 -9 12 -5 0 -7
-10 -4 -22 4 -19 3 -21 -7 -8 -10 13 -11 12 -6 -4 4 -11 0 -26 -9 -36 -15 -17
-20 -40 -35 -170 -9 -73 -9 -72 -5 30 6 168 59 284 169 370 76 58 158 89 306
114 48 9 235 -4 295 -19z m-5861 -19 c181 -53 292 -159 337 -321 23 -85 15
-329 -13 -362 -6 -7 -7 -13 -3 -13 10 0 -52 -108 -83 -145 -14 -16 -41 -41
-61 -54 -20 -14 -39 -29 -43 -35 -4 -6 -8 -8 -8 -3 0 4 -11 0 -25 -9 -14 -9
-28 -14 -31 -11 -3 3 4 8 15 12 12 3 21 11 21 16 0 5 6 9 13 9 6 0 26 13 43
30 18 16 35 26 39 22 5 -4 5 -2 2 4 -4 7 5 19 19 29 14 9 23 19 20 23 -3 3
-16 -4 -29 -15 -49 -45 -215 -115 -267 -112 -8 0 1 5 20 10 19 6 66 22 104 37
135 53 244 199 238 320 -1 24 2 41 6 38 12 -7 3 163 -10 204 -6 19 -18 51 -26
70 -9 19 -15 38 -14 42 1 5 -4 7 -11 5 -7 -1 -11 6 -9 16 2 9 -1 16 -5 15 -11
-4 -53 39 -45 46 3 3 -4 6 -16 6 -13 0 -22 6 -22 16 0 8 -4 13 -9 10 -5 -3
-14 1 -21 9 -7 8 -19 15 -27 15 -8 0 -12 4 -9 9 4 5 -4 7 -16 3 -16 -4 -19 -2
-13 8 5 8 4 11 -3 6 -6 -3 -37 2 -69 13 -91 30 -102 31 -383 33 -278 1 -330 4
-330 20 0 6 119 8 333 5 275 -3 342 -7 391 -21z m906 14 c0 -5 -11 -10 -25
-10 -14 0 -37 -11 -50 -25 l-25 -24 0 -419 0 -419 24 -22 c13 -12 36 -26 52
-30 18 -6 -45 -8 -161 -8 -137 1 -154 2 -63 4 l127 4 -7 32 c-4 18 -7 212 -7
432 0 365 2 403 18 428 9 14 17 28 17 31 0 2 -69 5 -152 5 -167 2 -248 9 -248
22 0 5 113 9 250 9 160 0 250 -4 250 -10z m809 -14 c138 -45 191 -118 191
-261 0 -96 -21 -163 -68 -212 -20 -22 -31 -31 -23 -21 8 10 10 18 5 18 -5 0
-2 6 6 13 8 7 22 21 30 32 10 13 4 10 -18 -7 -18 -15 -55 -35 -82 -45 -48 -17
-65 -33 -36 -33 29 0 113 -91 166 -180 63 -105 130 -193 162 -214 13 -8 38
-17 55 -21 28 -6 38 -2 63 23 l30 30 0 408 c0 224 2 405 4 403 3 -3 18 -412
17 -469 0 -8 -3 -89 -6 -180 -6 -139 -10 -169 -26 -192 -13 -19 -15 -28 -6
-31 6 -2 -31 -5 -83 -6 -52 -1 -91 1 -87 5 3 4 -15 31 -42 60 -27 29 -65 83
-85 119 -21 36 -41 65 -45 65 -5 0 -11 10 -15 23 -10 39 -106 127 -139 127
-17 0 -27 18 -20 37 3 6 29 19 58 29 54 16 130 78 119 95 -3 5 -1 9 4 9 17 0
35 98 27 155 -8 68 -58 137 -118 164 -96 43 -107 44 -389 48 l-277 4 15 -36
c8 -20 10 -34 5 -30 -6 3 -11 12 -11 20 0 23 -42 55 -72 55 -15 0 -28 5 -28
11 0 7 98 9 333 7 282 -4 340 -7 386 -22z m5317 1 c63 -21 109 -51 146 -98 38
-48 56 -145 39 -221 -6 -29 -13 -62 -14 -73 -7 -40 -59 -115 -81 -115 -6 0 -5
5 2 12 7 7 12 18 12 25 0 11 -4 11 -22 2 -13 -7 -40 -18 -61 -24 l-37 -11 52
-34 c52 -35 64 -50 180 -232 60 -95 107 -142 160 -162 41 -15 36 -15 -137 -12
-202 3 -244 13 -312 71 -50 43 -98 133 -118 221 -9 38 -18 77 -21 86 -4 13 0
16 15 13 12 -2 21 0 21 4 0 5 21 11 46 14 25 2 55 13 67 25 12 11 45 25 74 32
29 6 58 19 65 27 11 14 11 15 -7 5 -21 -11 -93 -27 -109 -23 -5 1 -17 -6 -28
-16 -12 -10 -22 -13 -26 -7 -4 5 -28 10 -55 9 -38 0 -46 -3 -41 -15 15 -37 15
-44 0 -26 -9 11 -16 23 -16 28 0 4 -5 8 -11 8 -7 0 -5 -10 6 -26 9 -14 15 -28
13 -30 -5 -4 -88 72 -88 80 0 3 15 6 33 6 82 0 138 79 140 199 1 81 -14 129
-53 166 -26 25 -40 30 -95 33 l-65 4 0 -410 c0 -386 1 -411 19 -433 10 -13 34
-29 52 -35 28 -10 -9 -12 -221 -12 -155 0 -241 3 -220 8 19 5 45 20 57 35 l23
26 0 413 0 413 -26 27 c-17 16 -38 26 -55 26 -16 0 -29 5 -29 11 0 7 100 9
338 7 280 -4 346 -7 388 -21z m754 13 c0 -5 -8 -10 -17 -10 -23 0 -53 -29 -53
-53 0 -16 145 -290 185 -349 10 -15 26 9 115 163 56 99 105 178 107 175 3 -3
-15 -43 -41 -91 -25 -47 -43 -85 -39 -85 5 0 3 -4 -4 -8 -6 -4 -28 -34 -48
-67 -21 -33 -46 -74 -57 -92 -10 -17 -25 -34 -33 -37 -16 -6 -49 40 -39 56 4
7 3 8 -4 4 -7 -4 -17 4 -24 20 -12 26 -13 26 -83 19 -38 -4 -78 -7 -88 -7 -10
1 -15 -4 -11 -10 5 -7 -2 -9 -20 -6 -14 3 -26 3 -26 1 0 -6 51 -96 62 -110 6
-7 7 -13 2 -13 -5 0 -22 21 -37 48 -74 127 -227 366 -248 389 -32 34 -71 53
-109 53 -16 0 -30 5 -30 10 0 6 97 10 270 10 173 0 270 -4 270 -10z m600 1 c0
-4 -18 -11 -40 -14 -21 -3 -52 -14 -69 -26 -29 -21 -321 -467 -321 -491 0 -7
9 -2 20 11 20 23 20 23 0 -13 -20 -34 -21 -50 -18 -201 3 -185 8 -197 76 -215
27 -7 -33 -10 -218 -10 -140 0 -244 3 -230 7 36 11 68 33 76 51 4 8 10 94 14
190 l6 175 2 -172 c2 -163 -5 -219 -29 -233 -5 -4 58 -7 141 -9 82 -1 150 2
150 6 0 5 -5 14 -11 20 -7 7 -9 76 -7 209 l3 199 31 45 c29 42 77 116 118 183
9 15 14 33 10 39 -4 6 -3 9 2 5 5 -3 38 37 73 89 36 53 77 105 92 117 l28 22
-114 0 c-78 0 -118 4 -127 13 -10 9 23 12 165 12 97 0 177 -4 177 -9z m-4537
-96 c26 -20 47 -40 47 -46 0 -6 -17 4 -39 24 -21 19 -55 41 -75 48 -20 7 -36
16 -36 20 0 14 54 -11 103 -46z m-4103 -795 c92 0 139 16 188 63 71 67 102
159 112 332 l8 120 -3 -125 c-3 -154 -8 -180 -41 -244 -64 -124 -127 -165
-261 -171 -125 -6 -114 -48 -113 428 1 301 4 415 13 426 9 11 13 -81 15 -407
l2 -422 80 0z m780 830 c0 -5 -2 -10 -4 -10 -3 0 -8 5 -11 10 -3 6 -1 10 4 10
6 0 11 -4 11 -10z m918 -8 l-58 -3 0 -400 c0 -339 2 -404 15 -429 9 -17 17
-30 18 -30 1 0 20 -7 42 -15 37 -13 19 -14 -215 -14 -234 0 -252 1 -215 14 22
8 41 15 42 15 1 0 8 10 15 23 10 16 14 121 18 412 l5 390 3 -393 c2 -384 1
-395 -19 -423 l-20 -29 151 0 c142 0 152 1 144 18 -12 24 -17 838 -5 860 7 14
19 16 72 12 l64 -5 -57 -3z m762 8 c0 -5 -2 -10 -4 -10 -3 0 -8 5 -11 10 -3 6
-1 10 4 10 6 0 11 -4 11 -10z m280 -190 l0 -200 85 0 c50 0 99 6 118 14 48 19
87 70 87 112 0 19 5 34 10 34 6 0 10 -72 10 -195 0 -123 -4 -195 -10 -195 -5
0 -10 15 -10 33 0 18 -7 42 -15 53 -17 22 -20 38 -5 29 6 -3 10 -1 10 5 0 7
-6 10 -14 7 -8 -3 -31 3 -52 14 -29 14 -59 19 -126 19 l-88 0 0 -186 0 -186
123 4 c101 3 129 7 163 25 56 30 130 115 151 174 18 49 38 68 28 27 -8 -37
-34 -200 -39 -249 -7 -59 -22 -99 -38 -99 -10 0 -10 2 -1 8 7 4 12 21 11 37
-1 31 9 130 18 175 5 22 1 21 -33 -16 -81 -87 -154 -114 -311 -114 l-100 0 -7
163 c-10 240 -10 237 5 247 25 16 211 6 247 -13 36 -19 57 -22 48 -7 -3 6 -1
10 6 10 8 0 8 4 -1 15 -9 10 -9 15 -1 15 21 0 11 18 -16 27 -22 8 -24 11 -10
16 9 3 17 2 17 -3 0 -6 4 -10 9 -10 5 0 8 10 7 23 l-1 23 -36 -25 c-20 -14
-35 -28 -33 -32 3 -6 -44 -11 -118 -13 -25 0 -44 -5 -40 -10 3 -5 -2 -6 -12
-3 -10 4 -26 7 -37 7 -11 0 -27 9 -36 20 -17 19 -17 19 -31 -13 -13 -29 -15
-30 -22 -12 -14 33 -11 65 5 65 8 0 15 6 15 13 0 9 2 9 9 -1 13 -21 21 49 21
196 0 125 9 172 32 172 5 0 8 -90 8 -200z m-2653 184 c-3 -3 -12 -4 -19 -1 -8
3 -5 6 6 6 11 1 17 -2 13 -5z m1709 -21 c-6 -6 -36 9 -36 18 0 5 9 4 20 -3 10
-7 18 -14 16 -15z m-2177 -844 c-16 -23 -27 -29 -57 -28 -37 1 -37 1 -8 9 16
5 39 19 52 31 l24 22 2 416 3 416 2 -418 c3 -410 3 -419 -18 -448z m1141 9
c-14 -19 -16 -28 -7 -31 6 -2 -13 -4 -43 -4 -50 -1 -52 0 -20 7 19 5 45 20 57
35 23 26 23 26 25 433 l3 407 2 -410 c3 -395 3 -411 -17 -437z m1082 795 c20
-34 23 -51 24 -156 1 -65 -1 -116 -4 -113 -3 3 -15 -9 -28 -27 -12 -18 -40
-45 -62 -61 -33 -23 -44 -26 -61 -16 -30 16 -26 30 9 30 77 0 129 67 138 176
5 68 -12 156 -34 175 -13 11 -19 29 -10 29 2 0 15 -17 28 -37z m1798 12 c0 -8
-4 -15 -10 -15 -5 0 -7 7 -4 15 4 8 8 15 10 15 2 0 4 -7 4 -15z m-135 -35 c3
-6 -1 -7 -9 -4 -18 7 -21 14 -7 14 6 0 13 -4 16 -10z m-3255 -30 c6 -11 7 -20
3 -20 -5 0 -14 9 -21 20 -7 11 -8 20 -2 20 5 0 14 -9 20 -20z m8071 -63 c-10
-9 -11 -8 -5 6 3 10 9 15 12 12 3 -3 0 -11 -7 -18z m-8035 -22 c6 -20 8 -37 5
-40 -4 -2 -12 14 -18 36 -13 49 -2 52 13 4z m5324 -26 c0 -11 -4 -18 -10 -14
-5 3 -7 12 -3 20 7 21 13 19 13 -6z m2693 6 c-3 -9 -8 -14 -10 -11 -3 3 -2 9
2 15 9 16 15 13 8 -4z m-2882 -39 c11 6 11 2 3 -21 -5 -13 -9 -14 -15 -3 -7
11 -11 10 -19 -2 -14 -21 -12 -3 2 23 7 14 13 17 16 9 2 -6 8 -10 13 -6z
m-5124 -33 c-3 -10 -5 -4 -5 12 0 17 2 24 5 18 2 -7 2 -21 0 -30z m5133 -27
c0 -3 -4 -8 -10 -11 -5 -3 -10 -1 -10 4 0 6 5 11 10 11 6 0 10 -2 10 -4z
m-3380 -50 c0 -2 -8 -10 -17 -17 -16 -13 -17 -12 -4 4 13 16 21 21 21 13z
m575 -36 c3 -5 -3 -10 -15 -10 -12 0 -18 5 -15 10 3 6 10 10 15 10 5 0 12 -4
15 -10z m862 -15 c0 -8 -4 -12 -9 -9 -5 3 -6 10 -3 15 9 13 12 11 12 -6z
m-917 -5 c0 -5 -4 -10 -10 -10 -5 0 -10 5 -10 10 0 6 5 10 10 10 6 0 10 -4 10
-10z m415 -20 c3 -5 1 -10 -4 -10 -6 0 -11 5 -11 10 0 6 2 10 4 10 3 0 8 -4
11 -10z m552 -12 c-3 -8 -6 -5 -6 6 -1 11 2 17 5 13 3 -3 4 -12 1 -19z m3632
-4 c2 -2 -9 -4 -26 -4 -18 0 -33 6 -36 14 -5 12 0 13 26 4 18 -6 34 -13 36
-14z m-5389 -89 c7 -33 15 -66 16 -73 1 -8 10 -29 19 -49 9 -19 14 -37 11 -40
-8 -8 -32 55 -54 143 -11 44 -23 88 -27 99 l-7 20 14 -20 c8 -11 21 -47 28
-80z m3583 25 c3 -11 1 -20 -4 -20 -5 0 -9 9 -9 20 0 11 2 20 4 20 2 0 6 -9 9
-20z m14 -52 c0 -7 3 -24 7 -38 5 -17 4 -20 -2 -10 -16 25 -24 60 -14 60 5 0
9 -6 9 -12z m-2018 -112 c-3 -3 -11 5 -18 17 -13 21 -12 21 5 5 10 -10 16 -20
13 -22z m2091 -36 c6 -11 8 -20 6 -20 -3 0 -10 9 -16 20 -6 11 -8 20 -6 20 3
0 10 -9 16 -20z m-2018 -39 c28 -33 5 -24 -28 10 -20 22 -23 28 -9 21 11 -6
28 -20 37 -31z m-1556 -18 c-7 -7 -26 7 -26 19 0 6 6 6 15 -2 9 -7 13 -15 11
-17z m3639 -3 c10 -11 13 -20 7 -20 -6 0 -16 9 -22 20 -6 11 -9 20 -7 20 2 0
12 -9 22 -20z m-3522 -80 c12 -5 16 -9 9 -9 -19 -1 -86 35 -103 55 -9 11 3 7
29 -10 24 -15 53 -31 65 -36z m4331 19 c-26 -27 -112 -74 -120 -66 -3 2 9 10
26 17 16 7 27 17 23 23 -3 5 -1 7 5 3 6 -3 19 5 30 19 11 13 22 22 25 18 4 -3
9 2 13 11 3 9 10 13 16 10 5 -3 -3 -19 -18 -35z m1636 21 c0 -5 -5 -10 -11
-10 -5 0 -7 5 -4 10 3 6 8 10 11 10 2 0 4 -4 4 -10z m-2369 -17 c13 -16 12
-17 -3 -4 -10 7 -18 15 -18 17 0 8 8 3 21 -13z m2350 -26 c-10 -9 -11 -8 -5 6
3 10 9 15 12 12 3 -3 0 -11 -7 -18z m-2291 3 c18 -12 2 -12 -25 0 -13 6 -15 9
-5 9 8 0 22 -4 30 -9z m-3597 -17 c-7 -2 -19 -2 -25 0 -7 3 -2 5 12 5 14 0 19
-2 13 -5z m167 -7 c14 -2 -15 -4 -65 -4 -49 -1 -85 2 -78 6 10 6 83 6 143 -2z
m1427 8 c-3 -3 -12 -4 -19 -1 -8 3 -5 6 6 6 11 1 17 -2 13 -5z m-3484 -11
c-13 -2 -35 -2 -50 0 -16 2 -5 4 22 4 28 0 40 -2 28 -4z m2514 1 c-3 -3 -12
-4 -19 -1 -8 3 -5 6 6 6 11 1 17 -2 13 -5z m91 -1 c-10 -2 -26 -2 -35 0 -10 3
-2 5 17 5 19 0 27 -2 18 -5z m85 0 c-13 -2 -33 -2 -45 0 -13 2 -3 4 22 4 25 0
35 -2 23 -4z m85 0 c-10 -2 -28 -2 -40 0 -13 2 -5 4 17 4 22 1 32 -1 23 -4z
m59 1 c-3 -3 -12 -4 -19 -1 -8 3 -5 6 6 6 11 1 17 -2 13 -5z m690 0 c-3 -3
-12 -4 -19 -1 -8 3 -5 6 6 6 11 1 17 -2 13 -5z m2040 0 c-3 -3 -12 -4 -19 -1
-8 3 -5 6 6 6 11 1 17 -2 13 -5z m-1994 -11 c-7 -2 -19 -2 -25 0 -7 3 -2 5 12
5 14 0 19 -2 13 -5z m2040 0 c-7 -2 -19 -2 -25 0 -7 3 -2 5 12 5 14 0 19 -2
13 -5z m-1835 -10 c-32 -2 -86 -2 -120 0 -35 2 -9 3 57 3 66 0 94 -1 63 -3z
m-3694 -208 c49 -9 103 -22 120 -30 17 -8 58 -24 91 -36 33 -12 69 -28 80 -34
11 -7 52 -23 90 -35 39 -13 72 -26 75 -29 3 -3 43 -19 90 -35 47 -16 90 -32
96 -37 6 -5 42 -18 80 -30 38 -12 71 -24 74 -28 3 -3 10 -7 15 -8 28 -7 161
-56 170 -62 5 -5 48 -21 95 -36 47 -16 94 -34 105 -40 11 -7 48 -21 83 -31 34
-10 62 -22 62 -28 0 -5 3 -6 7 -3 3 4 11 3 17 -1 6 -5 43 -19 81 -32 39 -12
75 -26 81 -31 6 -5 46 -20 88 -33 43 -14 83 -29 89 -34 7 -5 39 -17 72 -27 33
-10 69 -23 80 -30 11 -6 58 -24 105 -40 47 -15 90 -31 95 -36 9 -7 45 -20 265
-97 41 -14 77 -28 80 -31 3 -3 10 -7 15 -8 22 -5 151 -54 168 -63 10 -6 55
-22 100 -36 45 -15 87 -30 92 -34 6 -5 42 -19 80 -31 39 -13 72 -25 75 -28 3
-3 10 -7 15 -8 31 -8 171 -59 175 -64 3 -3 43 -19 90 -34 47 -15 90 -31 95
-35 6 -4 48 -20 95 -35 47 -15 87 -31 90 -34 3 -4 32 -15 65 -25 33 -10 71
-23 85 -28 14 -5 27 -9 29 -8 2 1 7 -2 10 -7 3 -5 33 -17 66 -27 33 -10 76
-26 95 -36 33 -16 59 -16 70 0 3 4 43 19 90 34 47 16 90 31 95 36 6 4 39 17
75 30 36 12 79 28 95 35 17 7 62 23 100 36 39 13 72 26 75 30 3 3 43 19 90 34
47 15 94 34 105 40 11 7 47 21 80 31 33 10 62 21 65 24 3 4 43 19 90 34 47 16
90 31 95 36 6 4 46 20 90 34 44 15 98 35 120 45 22 9 60 24 85 31 25 8 47 17
50 21 3 4 35 16 72 27 37 12 88 30 113 42 25 12 76 30 113 42 37 11 69 23 72
27 3 3 39 17 80 30 41 13 89 29 105 37 32 14 163 63 180 67 6 1 12 5 15 8 3 4
36 16 74 28 38 12 74 25 80 30 6 5 49 20 95 35 46 14 89 30 95 35 6 5 43 19
81 31 39 13 75 27 80 31 6 4 46 19 90 34 44 14 84 30 90 34 5 5 44 19 85 32
41 12 78 28 82 33 4 6 8 7 8 2 0 -5 6 -4 13 1 6 6 37 18 67 28 30 10 78 27
105 40 28 12 77 30 110 40 33 10 62 21 65 25 3 4 39 18 80 31 41 12 78 28 82
33 4 6 8 7 8 2 0 -5 6 -3 13 3 8 6 43 20 78 31 35 11 78 27 96 35 85 40 174
48 511 43 177 -3 325 -8 329 -12 10 -9 -26 -32 -70 -46 -22 -6 -46 -14 -56
-17 -12 -3 -12 -1 3 11 11 9 28 16 38 16 10 0 18 4 18 8 0 13 -597 16 -605 3
-3 -6 -21 -11 -40 -11 -43 0 -88 -17 -80 -30 3 -5 0 -7 -8 -4 -8 3 -31 -2 -51
-10 -20 -8 -34 -11 -30 -5 4 7 0 7 -14 0 -12 -6 -25 -11 -29 -10 -19 3 -32 -3
-58 -27 -15 -14 -25 -19 -22 -11 4 11 0 11 -28 -1 -19 -9 -32 -18 -30 -22 2
-3 -12 -5 -30 -5 -19 1 -32 -2 -29 -7 4 -5 0 -8 -7 -6 -25 5 -80 -24 -75 -39
4 -9 2 -11 -7 -6 -18 11 -49 14 -43 4 3 -5 -2 -8 -12 -7 -9 0 -16 -4 -15 -10
1 -7 -10 -10 -27 -8 -17 2 -30 -1 -30 -7 0 -6 -5 -7 -10 -4 -6 4 -21 0 -33 -7
-12 -8 -49 -23 -82 -33 -33 -10 -64 -21 -70 -25 -5 -4 -21 -11 -33 -15 -13 -4
-45 -16 -70 -28 -26 -12 -53 -20 -59 -19 -7 2 -23 -4 -36 -12 -12 -9 -55 -26
-95 -39 -40 -13 -78 -29 -84 -35 -7 -7 -21 -12 -32 -12 -30 0 -196 -73 -192
-85 1 -5 12 -10 22 -10 11 0 35 -15 54 -33 19 -18 31 -32 25 -31 -5 1 -19 -2
-30 -7 -16 -7 -9 -10 35 -15 52 -6 51 -7 -18 -6 -51 1 -75 -2 -81 -12 -5 -8
-17 -11 -28 -7 -24 8 -68 -7 -90 -30 -9 -8 -21 -13 -28 -10 -7 2 -21 -4 -31
-15 -9 -10 -23 -19 -30 -19 -18 0 -84 -40 -84 -51 0 -5 -7 -9 -15 -9 -24 0
-149 -52 -162 -67 -6 -8 -15 -14 -20 -13 -20 3 -44 -10 -38 -19 3 -6 -2 -12
-12 -13 -10 0 -29 -2 -43 -3 -42 -3 -130 -28 -130 -37 0 -4 -34 -8 -75 -8 -42
0 -85 -5 -96 -12 -17 -10 -23 -10 -26 -1 -5 13 -33 6 -33 -8 0 -15 -48 -60
-52 -49 -2 7 -20 13 -41 15 -28 3 -37 0 -37 -12 0 -8 -9 -17 -20 -20 -11 -3
-17 -9 -14 -14 3 -5 2 -9 -3 -8 -27 5 -64 -3 -77 -16 -20 -20 -36 -19 -37 3
-1 9 -5 4 -9 -13 l-8 -30 -1 33 c-1 23 -6 32 -18 33 -10 1 2 7 27 15 25 8 53
13 63 10 14 -3 16 -1 7 8 -8 11 -2 15 29 20 25 4 46 15 55 28 19 26 21 47 4
30 -17 -17 -33 -15 -18 3 11 13 10 14 -4 9 -9 -3 -16 -10 -16 -15 0 -5 -8 -13
-17 -16 -10 -4 -24 -13 -31 -20 -7 -7 -18 -13 -25 -13 -6 0 -2 7 9 15 26 19 4
19 -24 -1 -12 -8 -27 -12 -32 -9 -6 3 -10 1 -10 -5 0 -7 -8 -9 -21 -5 -14 5
-19 3 -15 -3 6 -10 -44 -32 -74 -32 -10 0 -29 -9 -43 -20 -18 -15 -27 -17 -30
-8 -3 7 -6 2 -7 -12 -1 -23 -2 -23 -10 -5 -5 11 -9 14 -9 6 -1 -7 -7 -11 -15
-8 -8 3 -17 -1 -20 -9 -3 -8 -11 -14 -18 -13 -16 3 -126 -29 -153 -44 -19 -12
-26 -13 -53 -16 -7 0 -10 -6 -6 -13 5 -7 2 -9 -8 -5 -9 3 -19 3 -22 -1 -4 -3
-16 -7 -28 -9 -12 -2 -26 -7 -32 -12 -6 -5 -26 -12 -43 -16 -24 -5 -33 -12
-34 -28 -1 -15 -3 -17 -6 -6 -3 11 -11 15 -23 12 -11 -3 -18 -9 -15 -13 3 -5
-4 -6 -15 -3 -12 3 -20 0 -20 -7 0 -7 -6 -10 -14 -7 -8 3 -20 -1 -26 -9 -7 -8
-19 -14 -27 -14 -10 0 -13 -6 -9 -16 3 -8 2 -12 -4 -9 -9 6 -14 -7 -11 -27 0
-4 -6 -5 -14 -2 -13 5 -13 8 0 21 21 21 19 39 -3 21 -9 -9 -23 -13 -31 -10 -8
3 -11 0 -7 -7 4 -6 2 -11 -4 -11 -6 0 -8 -4 -5 -10 3 -6 -1 -7 -9 -4 -9 3 -13
11 -10 16 4 6 1 8 -7 6 -8 -3 -13 -11 -11 -17 1 -7 -2 -10 -7 -7 -5 4 -22 1
-38 -5 -15 -7 -39 -14 -52 -16 -14 -2 -32 -9 -40 -14 -14 -9 -13 -10 2 -5 11
3 15 2 12 -4 -3 -6 -17 -10 -31 -10 -13 0 -24 -6 -25 -12 0 -10 -2 -10 -6 0
-2 6 -9 12 -14 12 -6 0 -7 -5 -4 -10 6 -9 -7 -14 -27 -11 -4 0 -31 -8 -60 -20
-51 -20 -53 -20 -97 -2 -25 9 -48 18 -51 19 -3 0 -18 6 -35 13 -16 7 -43 15
-60 18 -16 4 -35 13 -42 22 -7 9 -13 13 -13 8 0 -4 -16 -1 -35 7 -20 9 -36 15
-38 15 -1 0 -15 4 -30 10 -16 6 -31 11 -34 11 -3 0 -19 6 -36 14 -18 7 -50 22
-72 31 -22 10 -49 22 -59 27 -16 9 -18 7 -12 -8 6 -18 5 -18 -7 -2 -8 9 -47
29 -88 44 -41 15 -75 31 -77 35 -2 4 -12 4 -24 1 -15 -3 -19 -2 -14 7 6 9 0
10 -20 5 -21 -5 -25 -4 -19 6 5 8 4 11 -1 7 -12 -7 -103 23 -137 46 -16 11
-28 13 -32 7 -4 -6 -1 -9 6 -8 7 2 14 -4 15 -12 3 -36 5 -40 17 -40 15 0 47
-35 47 -52 0 -6 3 -8 8 -4 7 8 9 14 11 47 1 19 3 18 32 -10 22 -22 29 -38 27
-58 -3 -26 -7 -28 -46 -29 -34 -1 -45 3 -54 20 -6 12 -10 21 -9 21 1 0 -1 8
-5 18 -4 10 -13 16 -21 13 -8 -3 -11 -2 -8 3 3 5 1 12 -5 16 -5 3 -10 1 -10
-4 0 -6 -7 -11 -15 -11 -8 0 -15 3 -15 8 0 4 -13 7 -29 7 -16 0 -27 -3 -24 -7
2 -5 1 -8 -4 -8 -10 1 -43 25 -43 33 0 6 66 40 83 43 4 1 10 2 14 3 4 0 -2 8
-13 16 -18 13 -18 14 6 9 14 -3 -4 7 -40 21 -83 33 -89 35 -96 34 -4 0 -11 5
-15 13 -7 10 -9 10 -9 0 0 -10 -4 -10 -19 0 -11 7 -17 16 -14 22 3 5 1 6 -5 2
-6 -3 -44 5 -84 20 -40 14 -81 26 -90 27 -9 1 -14 5 -11 11 4 5 -6 6 -23 2
-19 -4 -24 -3 -15 3 10 7 6 11 -18 16 -17 3 -33 11 -36 16 -4 5 -17 9 -30 9
-13 0 -26 4 -30 10 -3 5 -20 14 -38 19 -18 5 -63 22 -102 36 -38 15 -80 30
-92 32 -13 3 -23 9 -23 14 0 5 -3 8 -7 7 -5 -1 -28 5 -53 12 -25 7 -48 13 -52
12 -5 -1 -8 2 -8 6 0 5 -18 14 -40 21 -23 7 -70 25 -105 42 -35 16 -73 29 -84
29 -12 0 -21 5 -21 10 0 6 -7 10 -16 10 -8 0 -13 4 -10 9 4 5 -2 7 -12 4 -11
-2 -50 9 -87 26 -37 17 -85 36 -107 41 -23 7 -36 15 -32 22 4 7 -1 8 -16 3
-16 -5 -20 -4 -15 4 5 8 -1 10 -19 5 -17 -4 -26 -2 -26 6 0 6 -4 8 -10 5 -5
-3 -10 -2 -10 4 0 5 -13 12 -30 16 -16 4 -30 11 -30 15 0 5 -7 7 -15 4 -8 -4
-26 1 -40 10 -14 9 -29 14 -34 12 -5 -3 -14 1 -21 9 -7 8 -19 15 -28 15 -8 0
-30 9 -49 21 -18 12 -40 18 -48 15 -19 -7 -47 3 -40 14 3 5 1 11 -5 15 -5 3
-10 2 -10 -4 0 -5 -22 1 -48 14 -27 13 -67 28 -90 35 -24 6 -41 14 -38 18 2 4
-6 7 -17 8 -25 1 -130 45 -135 57 -2 4 -8 4 -13 1 -6 -3 -16 0 -24 6 -8 7 -22
10 -30 6 -9 -3 -18 1 -22 9 -3 10 -12 13 -25 9 -13 -4 -18 -2 -14 5 4 6 -5 13
-21 17 -15 4 -32 10 -38 14 -5 4 -23 11 -40 15 -40 11 -44 12 -52 15 -5 1 -11
2 -15 1 -5 0 -8 4 -8 9 0 6 -3 9 -7 8 -5 -1 -26 7 -48 19 -22 11 -62 28 -90
38 -27 9 -57 20 -65 23 -8 3 -24 7 -35 9 -11 2 -27 6 -35 10 -8 3 -19 7 -25 8
-5 0 -17 4 -25 7 -38 16 -204 24 -461 21 -174 -2 -279 1 -279 7 0 23 609 19
744 -5z m-616 -42 c12 -3 22 -9 22 -14 0 -5 -19 -1 -42 8 -49 19 -65 29 -28
19 14 -4 35 -10 48 -13z m8372 -13 c8 -5 11 -10 5 -10 -5 0 -17 5 -25 10 -8 5
-10 10 -5 10 6 0 17 -5 25 -10z m-43 -6 c-3 -3 -12 -4 -19 -1 -8 3 -5 6 6 6
11 1 17 -2 13 -5z m603 -4 c0 -5 -7 -10 -16 -10 -8 0 -12 5 -9 10 3 6 10 10
16 10 5 0 9 -4 9 -10z m-55 -23 c-25 -15 -166 -68 -182 -69 -7 -1 -13 -4 -13
-8 0 -9 -110 -43 -117 -36 -3 2 -13 -3 -23 -12 -10 -9 -58 -30 -107 -47 -48
-16 -90 -32 -93 -35 -5 -6 -102 -40 -116 -40 -3 0 -1 7 6 15 7 8 15 13 19 10
4 -2 20 2 34 10 15 8 31 15 35 16 4 0 6 5 5 9 -1 4 6 6 16 3 20 -5 114 40 106
51 -3 3 0 2 6 -2 6 -5 24 -3 44 6 25 12 31 19 22 25 -8 6 -6 7 6 3 11 -3 24
-3 30 1 6 4 24 8 41 10 16 2 35 8 43 14 7 6 13 8 13 4 0 -5 9 0 20 10 11 10
17 22 13 28 -3 6 -1 7 6 3 6 -4 9 -12 6 -17 -3 -5 1 -6 9 -3 9 3 13 10 10 15
-3 5 3 6 12 2 13 -5 15 -3 9 8 -8 12 -6 12 8 0 9 -7 17 -10 17 -5 0 5 11 10
25 10 13 1 42 11 62 22 39 20 63 19 28 -1z m-515 9 c0 -2 -7 -6 -15 -10 -8 -3
-15 -1 -15 4 0 6 7 10 15 10 8 0 15 -2 15 -4z m-8215 -26 c7 -12 -2 -12 -30 0
-19 8 -19 9 2 9 12 1 25 -3 28 -9z m49 -19 c4 -5 -3 -7 -14 -4 -23 6 -26 13
-6 13 8 0 17 -4 20 -9z m111 -46 c39 -17 21 -18 -25 0 -19 7 -28 14 -20 14 8
0 29 -6 45 -14z m8522 -1 c-3 -3 -12 -4 -19 -1 -8 3 -5 6 6 6 11 1 17 -2 13
-5z m-37 -8 c0 -2 -7 -7 -16 -10 -8 -3 -12 -2 -9 4 6 10 25 14 25 6z m-54 -15
c-6 -9 -46 -22 -46 -15 0 3 10 9 23 14 29 11 29 11 23 1z m-62 -30 c3 -5 -5
-11 -19 -13 -26 -5 -35 6 -12 15 19 8 25 8 31 -2z m-8194 -11 c13 -9 13 -10 0
-10 -8 0 -22 5 -30 10 -13 9 -13 10 0 10 8 0 22 -5 30 -10z m8140 -13 c0 -5
-6 -7 -14 -4 -7 3 -19 0 -25 -6 -8 -8 -11 -8 -11 0 0 12 15 20 38 20 6 0 12
-5 12 -10z m-8095 -7 c3 -6 -1 -7 -9 -4 -18 7 -21 14 -7 14 6 0 13 -4 16 -10z
m7999 -25 c-4 -8 -11 -12 -16 -9 -6 4 -5 10 3 15 19 12 19 11 13 -6z m-7849
-30 c22 -8 33 -14 24 -15 -9 0 -32 7 -50 15 -44 18 -26 19 26 0z m7765 2 c-14
-8 -27 -12 -30 -10 -7 6 23 23 40 23 8 0 4 -6 -10 -13z m-230 -25 c0 -5 -11
-14 -25 -20 -31 -14 -33 1 -2 16 28 14 27 13 27 4z m123 -17 c-3 -9 -8 -14
-10 -11 -3 3 -2 9 2 15 9 16 15 13 8 -4z m-183 -8 c0 -7 -23 -21 -52 -30 -62
-20 -78 -14 -22 8 21 9 46 20 54 25 20 12 20 12 20 -3z m-7263 -34 c-6 -6 -87
21 -87 29 0 4 20 0 46 -9 25 -8 43 -17 41 -20z m7418 27 c-3 -5 -10 -10 -16
-10 -5 0 -9 5 -9 10 0 6 7 10 16 10 8 0 12 -4 9 -10z m-49 -15 c-20 -15 -36
-19 -36 -10 0 5 38 23 50 24 3 0 -4 -6 -14 -14z m-226 -23 c0 -12 -138 -68
-146 -59 -6 6 57 36 88 42 10 2 26 8 35 14 22 13 23 13 23 3z m150 -2 c0 -5
-5 -10 -11 -10 -5 0 -7 5 -4 10 3 6 8 10 11 10 2 0 4 -4 4 -10z m-7205 -28
c-3 -3 -11 0 -18 7 -9 10 -8 11 6 5 10 -3 15 -9 12 -12z m7158 1 c-7 -2 -19
-2 -25 0 -7 3 -2 5 12 5 14 0 19 -2 13 -5z m-7116 -9 c-3 -3 -12 -4 -19 -1 -8
3 -5 6 6 6 11 1 17 -2 13 -5z m73 -24 c0 -5 -7 -7 -15 -4 -8 4 -15 8 -15 10 0
2 7 4 15 4 8 0 15 -4 15 -10z m6770 -10 c-24 -15 -37 -11 -16 5 11 8 22 12 25
9 3 -3 -1 -9 -9 -14z m170 16 c0 -3 -4 -8 -10 -11 -5 -3 -10 -1 -10 4 0 6 5
11 10 11 6 0 10 -2 10 -4z m-35 -16 c-3 -5 -15 -15 -25 -20 -16 -8 -18 -8 -14
4 3 8 13 17 22 19 10 3 18 5 20 6 2 0 0 -3 -3 -9z m-181 -13 c-4 -11 -94 -47
-118 -47 -22 0 10 18 54 30 28 8 53 18 56 22 8 13 14 9 8 -5z m-6579 -35 c-5
-5 -77 18 -89 29 -5 4 14 1 42 -8 29 -9 50 -19 47 -21z m6681 13 c-36 -19 -47
-19 -22 0 11 8 27 15 35 15 9 0 3 -7 -13 -15z m-47 -8 c-2 -1 -13 -9 -24 -17
-19 -14 -19 -14 -6 3 7 9 18 17 24 17 6 0 8 -1 6 -3z m-189 -15 c0 -5 -11 -14
-25 -20 -31 -14 -33 1 -2 16 28 14 27 13 27 4z m-60 -25 c0 -13 -107 -53 -116
-44 -3 3 16 13 43 23 26 9 52 21 58 26 12 11 15 10 15 -5z m180 2 c12 -8 10
-9 -7 -4 -15 4 -23 2 -23 -6 0 -7 -3 -10 -6 -6 -7 7 4 27 14 27 4 0 14 -5 22
-11z m-6384 -36 c-6 -6 -86 21 -86 29 0 4 20 0 45 -10 24 -9 43 -18 41 -19z
m6324 18 c0 -5 -7 -12 -16 -15 -14 -5 -15 -4 -4 9 14 17 20 19 20 6z m-264
-44 c-22 -16 -176 -70 -182 -64 -3 2 21 14 53 27 32 12 76 30 98 40 43 19 59
18 31 -3z m-5971 -15 c-3 -3 -11 0 -18 7 -9 10 -8 11 6 5 10 -3 15 -9 12 -12z
m6081 -3 c-21 -11 -40 -18 -43 -15 -6 6 48 35 67 36 8 0 -3 -9 -24 -21z
m-6016 -9 c13 -9 13 -10 0 -9 -8 0 -24 4 -35 9 l-20 9 20 0 c11 0 27 -4 35 -9z
m55 -20 c8 -13 -5 -13 -25 0 -13 8 -13 10 2 10 9 0 20 -4 23 -10z m5654 -34
c-4 -3 -141 -49 -169 -57 -8 -2 -17 -7 -20 -10 -3 -4 -36 -16 -74 -28 -38 -12
-74 -25 -80 -30 -16 -13 -168 -62 -174 -56 -3 2 -10 -2 -16 -10 -6 -8 -42 -25
-81 -39 -154 -54 -241 -86 -257 -96 -25 -14 -169 -62 -174 -57 -2 2 8 9 24 16
15 8 35 17 44 22 10 5 24 9 32 9 8 0 22 10 30 22 15 21 16 21 16 3 0 -12 3
-16 8 -9 4 6 41 22 82 35 84 26 122 43 114 51 -3 4 0 9 7 14 8 5 10 3 4 -6 -6
-9 -2 -10 16 -5 13 4 28 11 33 16 6 5 18 9 27 9 10 0 25 7 33 16 11 10 16 11
16 3 0 -8 6 -7 18 4 9 8 19 15 22 15 10 -2 85 25 138 48 29 13 58 24 66 24 7
0 16 3 20 7 3 4 17 8 29 10 12 2 52 18 89 36 37 18 65 30 62 25 -3 -4 9 -2 26
3 16 6 28 14 25 19 -2 4 6 5 19 3 13 -3 27 1 32 8 6 10 9 10 12 0 2 -7 2 -14
1 -15z m-5535 -12 c26 -9 45 -18 43 -20 -2 -2 -28 5 -58 15 -30 11 -49 20 -43
20 6 1 32 -6 58 -15z m5640 1 c-22 -17 -34 -19 -34 -6 0 5 8 12 18 14 32 9 36
7 16 -8z m-74 -25 c0 -5 -5 -10 -11 -10 -5 0 -7 5 -4 10 3 6 8 10 11 10 2 0 4
-4 4 -10z m-5400 -40 c11 -8 7 -9 -15 -4 -37 8 -45 14 -19 14 10 0 26 -5 34
-10z m5243 -15 c-3 -9 -8 -14 -10 -11 -3 3 -2 9 2 15 9 16 15 13 8 -4z m-5193
-5 c0 -5 -7 -7 -15 -4 -8 4 -15 8 -15 10 0 2 7 4 15 4 8 0 15 -4 15 -10z
m5165 -10 c-3 -5 -11 -10 -16 -10 -6 0 -7 5 -4 10 3 6 11 10 16 10 6 0 7 -4 4
-10z m-432 -25 c-3 -9 -8 -14 -10 -11 -3 3 -2 9 2 15 9 16 15 13 8 -4z m27
-10 c-7 -9 -15 -13 -17 -11 -6 6 20 36 26 30 2 -2 -2 -10 -9 -19z m-4618 -4
c13 -5 32 -12 42 -15 10 -4 17 -9 14 -11 -2 -3 -29 4 -59 14 -30 11 -46 20
-37 20 9 1 27 -3 40 -8z m4883 -11 c3 -5 -1 -10 -10 -10 -9 0 -13 5 -10 10 3
6 8 10 10 10 2 0 7 -4 10 -10z m-54 -24 c-6 -8 -21 -16 -32 -19 -24 -6 -19 1
13 19 31 16 32 16 19 0z m-4628 -46 c5 -5 -16 -1 -47 9 -31 9 -56 19 -56 23 0
8 90 -20 103 -32z m4272 12 c-3 -3 -11 0 -18 7 -9 10 -8 11 6 5 10 -3 15 -9
12 -12z m285 8 c-8 -5 -19 -10 -25 -10 -5 0 -3 5 5 10 8 5 20 10 25 10 6 0 3
-5 -5 -10z m-4500 -41 c0 -4 -7 -6 -15 -3 -8 4 -15 10 -15 15 0 4 7 6 15 3 8
-4 15 -10 15 -15z m4385 1 c-3 -5 -12 -10 -18 -10 -7 0 -6 4 3 10 19 12 23 12
15 0z m-35 -18 c0 -5 -7 -9 -15 -9 -8 0 -12 4 -9 9 3 4 9 8 15 8 5 0 9 -4 9
-8z m-4270 -12 c11 -8 7 -9 -15 -4 -37 8 -45 14 -19 14 10 0 26 -5 34 -10z
m4220 -4 c0 -3 -4 -8 -10 -11 -5 -3 -10 -1 -10 4 0 6 5 11 10 11 6 0 10 -2 10
-4z m-4136 -27 c6 -5 -4 -5 -24 1 -18 5 -35 12 -39 16 -9 10 53 -6 63 -17z
m46 -20 c0 -4 -7 -6 -15 -3 -8 4 -15 10 -15 15 0 4 7 6 15 3 8 -4 15 -10 15
-15z m3990 1 c-8 -5 -17 -7 -19 -4 -3 3 1 9 9 14 8 5 17 7 19 4 3 -3 -1 -9 -9
-14z m-3901 -37 c4 -3 -2 -3 -12 0 -11 4 -30 10 -43 13 -13 3 -24 10 -24 15 0
9 68 -15 79 -28z m3101 33 c0 -2 -7 -6 -15 -10 -8 -3 -15 -1 -15 4 0 6 7 10
15 10 8 0 15 -2 15 -4z m705 -26 c-3 -5 -12 -10 -18 -10 -7 0 -6 4 3 10 19 12
23 12 15 0z m-3780 -10 c3 -5 1 -10 -4 -10 -6 0 -11 5 -11 10 0 6 2 10 4 10 3
0 8 -4 11 -10z m75 -26 c15 -2 90 -37 87 -40 -7 -8 -107 31 -112 43 -3 9 -1
11 8 6 6 -4 14 -8 17 -9z m3460 3 c0 -8 -27 -21 -62 -32 -35 -10 -85 -28 -113
-40 -27 -13 -75 -30 -105 -40 -30 -10 -59 -21 -65 -25 -17 -12 -137 -51 -142
-46 -5 5 62 36 78 36 5 0 32 11 61 24 80 35 92 39 106 37 6 -1 12 3 12 8 0 6
7 7 17 4 12 -5 14 -3 8 7 -5 8 -3 11 6 8 8 -3 43 8 78 24 35 16 72 30 82 31
10 2 22 6 25 10 11 10 14 9 14 -6z m165 -1 c-11 -8 -24 -12 -29 -8 -5 3 -1 9
10 13 31 12 39 10 19 -5z m-61 -21 c-22 -17 -34 -19 -34 -6 0 5 8 12 18 14 32
9 36 7 16 -8z m-3409 -46 c-7 -10 -35 -1 -35 11 0 5 9 6 20 3 11 -3 17 -9 15
-14z m3275 -3 c0 -3 -4 -8 -10 -11 -5 -3 -10 -1 -10 4 0 6 5 11 10 11 6 0 10
-2 10 -4z m-3170 -31 c36 -20 14 -18 -50 5 -50 18 -52 20 -15 14 22 -3 51 -12
65 -19z m3116 10 c-11 -8 -24 -15 -30 -15 -5 0 -1 7 10 15 10 8 24 14 29 14 6
0 1 -6 -9 -14z m-589 -11 c-3 -3 -12 -4 -19 -1 -8 3 -5 6 6 6 11 1 17 -2 13
-5z m528 -14 c-3 -5 -11 -10 -16 -10 -6 0 -7 5 -4 10 3 6 11 10 16 10 6 0 7
-4 4 -10z m-2900 -41 c98 -32 130 -47 120 -57 -2 -3 -10 0 -17 5 -7 6 -51 22
-98 37 -47 15 -96 33 -110 42 -14 8 -18 13 -10 10 8 -3 60 -19 115 -37z m2865
36 c0 -2 -6 -8 -13 -14 -10 -8 -14 -7 -14 2 0 8 6 14 14 14 7 0 13 -1 13 -2z
m-637 -24 c-3 -12 -11 -17 -19 -14 -12 4 -11 8 3 19 10 7 19 14 20 14 0 0 -1
-9 -4 -19z m597 5 c0 -3 -4 -8 -10 -11 -5 -3 -10 -1 -10 4 0 6 5 11 10 11 6 0
10 -2 10 -4z m-863 -22 c-3 -3 -12 -4 -19 -1 -8 3 -5 6 6 6 11 1 17 -2 13 -5z
m583 -25 c0 -5 -7 -9 -15 -9 -8 0 -15 -4 -15 -8 0 -5 -28 -17 -62 -27 -35 -10
-85 -28 -113 -40 -27 -13 -75 -30 -105 -40 -30 -10 -61 -22 -67 -28 -9 -6 -13
-6 -13 2 0 10 15 18 75 41 11 4 34 13 50 20 17 8 35 15 40 16 79 24 178 62
192 75 18 16 33 15 33 -2z m155 -9 c-3 -5 -11 -10 -16 -10 -6 0 -7 5 -4 10 3
6 11 10 16 10 6 0 7 -4 4 -10z m-2465 -44 c0 4 7 1 15 -6 8 -7 15 -18 15 -24
-1 -6 -6 -5 -13 4 -7 8 -16 15 -22 15 -25 2 -95 27 -95 34 0 5 23 1 50 -10 28
-10 50 -16 50 -13z m70 -31 c5 3 10 1 10 -4 0 -6 9 -11 19 -11 11 0 23 -5 26
-10 4 -7 -3 -8 -22 -4 -47 11 -63 24 -62 47 l0 22 10 -23 c5 -13 13 -20 19
-17z m2190 -5 c-8 -6 -22 -10 -30 -9 -9 0 -5 6 10 14 27 14 44 10 20 -5z
m-2074 -36 c19 -3 34 -10 34 -14 0 -4 18 -13 41 -20 22 -8 42 -17 45 -21 2 -4
-10 -3 -28 2 -18 6 -41 13 -50 16 -10 3 -18 9 -18 14 0 4 -16 11 -35 15 -24 4
-35 12 -34 23 0 9 3 11 6 4 2 -7 20 -15 39 -19z m1902 -18 c-7 -8 -15 -12 -17
-11 -5 6 10 25 20 25 5 0 4 -6 -3 -14z m-178 -9 c0 -12 -109 -51 -118 -42 -6
5 70 38 85 36 6 -1 14 3 18 9 8 14 15 13 15 -3z m145 -7 c-3 -5 -12 -10 -18
-10 -7 0 -6 4 3 10 19 12 23 12 15 0z m-1720 -30 c3 -5 1 -10 -4 -10 -6 0 -11
5 -11 10 0 6 2 10 4 10 3 0 8 -4 11 -10z m1445 -7 c0 -10 -60 -37 -135 -62
-33 -11 -82 -29 -108 -41 -26 -12 -53 -19 -60 -17 -7 3 2 10 18 16 17 6 38 16
49 22 10 6 30 13 45 15 14 3 39 12 55 20 16 8 34 14 40 14 6 0 27 9 46 19 38
22 50 25 50 14z m-1362 -22 c9 -5 32 -15 50 -22 18 -6 31 -14 28 -16 -6 -7
-106 30 -106 39 0 10 6 10 28 -1z m1492 -1 c0 -5 -4 -10 -10 -10 -5 0 -10 5
-10 10 0 6 5 10 10 10 6 0 10 -4 10 -10z m-41 -4 c-2 -2 -15 -9 -29 -15 -24
-11 -24 -11 -6 3 16 13 49 24 35 12z m-1314 -46 c3 -5 1 -10 -4 -10 -6 0 -11
5 -11 10 0 6 2 10 4 10 3 0 8 -4 11 -10z m1180 -10 c-3 -5 -16 -10 -28 -9 -21
0 -21 1 -2 9 28 12 37 12 30 0z m-1071 -35 c10 -3 17 -8 14 -10 -2 -3 -28 3
-57 13 -29 10 -49 21 -46 24 4 4 21 1 39 -7 17 -7 40 -16 50 -20z m1006 15
c-8 -5 -19 -10 -25 -10 -5 0 -3 5 5 10 8 5 20 10 25 10 6 0 3 -5 -5 -10z
m-210 -20 c0 -5 -12 -13 -27 -16 -16 -4 -33 -10 -38 -15 -15 -11 -166 -61
-171 -56 -3 2 8 9 23 15 15 5 69 26 118 45 50 20 91 36 93 36 1 1 2 -3 2 -9z
m165 0 c-3 -5 -11 -10 -16 -10 -6 0 -7 5 -4 10 3 6 11 10 16 10 6 0 7 -4 4
-10z m-865 -32 c0 -4 -7 -8 -15 -8 -8 0 -15 4 -15 8 0 5 7 9 15 9 8 0 15 -4
15 -9z m770 -4 c0 -8 -19 -13 -24 -6 -3 5 1 9 9 9 8 0 15 -2 15 -3z m-710 -14
c13 -9 13 -10 0 -9 -8 0 -24 4 -35 9 l-20 9 20 0 c11 0 27 -4 35 -9z m640 -4
c0 -2 -7 -7 -16 -10 -8 -3 -12 -2 -9 4 6 10 25 14 25 6z m-250 -39 c0 -43
-195 -63 -260 -27 -19 10 -28 19 -20 19 8 0 26 -6 40 -14 14 -8 50 -14 81 -15
57 0 149 25 149 41 0 5 2 9 5 9 3 0 5 -6 5 -13z m90 -27 c-8 -5 -22 -9 -30 -9
-10 0 -8 3 5 9 27 12 43 12 25 0z m-100 -44 c0 -2 -7 -7 -16 -10 -8 -3 -12 -2
-9 4 6 10 25 14 25 6z"/>
<path d="M11837 8113 c-4 -38 -7 -114 -7 -170 0 -62 -4 -103 -10 -103 -6 0
-10 -33 -10 -80 0 -47 4 -80 10 -80 6 0 11 -35 12 -82 1 -77 2 -79 7 -28 l6
55 78 4 c51 2 82 -1 92 -9 13 -11 15 21 13 266 0 154 -4 259 -8 234 l-7 -45
-3 45 c-1 25 -4 38 -7 28 -3 -13 -17 -16 -80 -15 -42 1 -69 3 -59 5 23 5 21
42 -3 42 -15 0 -19 -11 -24 -67z"/>
<path d="M12010 7270 c0 -5 -12 -10 -26 -10 -14 0 -22 -4 -19 -10 9 -15 50 -5
53 13 2 10 1 17 -2 17 -3 0 -6 -4 -6 -10z"/>
<path d="M5788 8563 c12 -2 30 -2 40 0 9 3 -1 5 -23 4 -22 0 -30 -2 -17 -4z"/>
<path d="M6653 8533 c9 -2 25 -2 35 0 9 3 1 5 -18 5 -19 0 -27 -2 -17 -5z"/>
<path d="M7926 8275 c4 -8 8 -15 10 -15 2 0 4 7 4 15 0 8 -4 15 -10 15 -5 0
-7 -7 -4 -15z"/>
<path d="M6851 8261 c-22 -14 -5 -40 26 -41 76 -4 91 -5 87 -11 -2 -4 7 -6 21
-5 26 1 34 20 13 32 -7 5 -8 3 -3 -6 5 -8 3 -11 -6 -8 -8 3 -13 11 -11 17 1 6
-2 11 -8 11 -5 0 -10 -3 -10 -8 0 -14 -71 -4 -83 12 -8 10 -17 13 -26 7z"/>
<path d="M7896 8045 c-3 -9 0 -15 8 -15 7 0 13 7 13 15 0 8 -4 15 -8 15 -4 0
-9 -7 -13 -15z"/>
<path d="M8415 7890 c3 -5 8 -10 11 -10 2 0 4 5 4 10 0 6 -5 10 -11 10 -5 0
-7 -4 -4 -10z"/>
<path d="M9206 7672 c-3 -6 -1 -14 5 -17 14 -9 20 -2 10 14 -6 8 -11 9 -15 3z"/>
<path d="M9283 7623 c7 -11 -19 -33 -29 -25 -4 4 -4 1 0 -6 6 -9 13 -8 31 5
22 17 24 33 4 33 -6 0 -8 -3 -6 -7z"/>
<path d="M9348 7573 c7 -3 16 -2 19 1 4 3 -2 6 -13 5 -11 0 -14 -3 -6 -6z"/>
<path d="M9348 7553 c7 -3 16 -2 19 1 4 3 -2 6 -13 5 -11 0 -14 -3 -6 -6z"/>
<path d="M5888 8308 c-9 -5 -6 -8 9 -8 12 0 24 4 27 8 7 11 -19 11 -36 0z"/>
<path d="M5900 8291 c-23 -7 -22 -8 15 -14 53 -10 165 -18 140 -10 -11 3 -23
10 -26 16 -9 13 -96 18 -129 8z"/>
<path d="M5556 8247 c3 -8 17 -11 39 -9 44 5 36 22 -10 22 -24 0 -33 -4 -29
-13z"/>
<path d="M4501 8069 c17 -11 39 -12 39 -1 0 4 -12 8 -27 9 -19 1 -22 -1 -12
-8z"/>
<path d="M4556 8068 c3 -5 10 -6 15 -3 13 9 11 12 -6 12 -8 0 -12 -4 -9 -9z"/>
<path d="M3074 7754 c9 -6 14 -13 11 -16 -3 -2 9 -5 25 -5 22 0 30 5 28 15 -2
9 -9 17 -17 20 -8 3 -11 0 -7 -7 4 -6 0 -11 -9 -11 -9 0 -14 4 -11 8 2 4 -4 8
-15 8 -18 0 -18 -2 -5 -12z"/>
<path d="M3200 7755 c0 -8 4 -15 10 -15 5 0 7 7 4 15 -4 8 -8 15 -10 15 -2 0
-4 -7 -4 -15z"/>
<path d="M3012 7752 c-9 -6 -5 -12 13 -20 32 -15 51 -6 34 14 -13 16 -28 18
-47 6z m38 -12 c0 -5 -7 -7 -15 -4 -8 4 -15 8 -15 10 0 2 7 4 15 4 8 0 15 -4
15 -10z"/>
<path d="M3165 7750 c-19 -8 -19 -9 3 -9 12 -1 22 4 22 9 0 6 -1 10 -2 9 -2 0
-12 -4 -23 -9z"/>
<path d="M3270 7739 c-63 -11 -125 -18 -137 -16 -12 2 -24 1 -25 -3 -4 -9
-457 -72 -468 -65 -6 3 -10 2 -10 -3 0 -4 -80 -19 -177 -32 -141 -19 -170 -26
-143 -32 57 -12 1350 -111 1357 -104 4 3 -5 19 -19 34 -14 15 -28 36 -32 46
-7 20 -7 20 16 0 12 -10 17 -12 11 -4 -7 9 -19 51 -28 94 -17 81 -33 110 -54
97 -7 -5 -16 -25 -21 -45 -7 -31 -5 -38 13 -51 12 -8 18 -15 14 -15 -4 0 -2
-6 5 -14 7 -8 15 -12 18 -11 3 2 7 -5 7 -16 1 -10 0 -19 -1 -19 -2 0 -37 40
-77 90 -85 103 -69 99 -249 69z m325 -77 c-3 -3 -11 0 -18 7 -9 10 -8 11 6 5
10 -3 15 -9 12 -12z"/>
<path d="M2933 7733 c9 -2 17 -11 17 -19 0 -12 4 -12 21 -4 11 7 28 9 37 6 13
-5 12 -2 -2 9 -22 17 -40 20 -31 5 3 -5 1 -10 -4 -10 -6 0 -11 5 -11 10 0 6
-10 9 -22 9 -17 -1 -19 -2 -5 -6z"/>
<path d="M2840 7700 c0 -12 8 -12 35 0 18 8 17 9 -7 9 -16 1 -28 -3 -28 -9z"/>
<path d="M4590 7248 l5 -63 35 -3 c19 -1 30 1 24 5 -15 11 -25 93 -11 93 17 0
-26 29 -43 30 -12 0 -14 -11 -10 -62z"/>
<path d="M1099 7463 c-13 -16 -12 -17 4 -4 16 13 21 21 13 21 -2 0 -10 -8 -17
-17z"/>
<path d="M830 6607 l-25 -32 27 20 c15 11 28 24 28 28 0 5 5 5 12 1 7 -4 8 -3
4 4 -11 18 -18 14 -46 -21z"/>
<path d="M7360 6275 c0 -5 5 -17 10 -25 5 -8 10 -10 10 -5 0 6 -5 17 -10 25
-5 8 -10 11 -10 5z"/>
<path d="M7170 6266 c0 -2 7 -7 16 -10 8 -3 12 -2 9 4 -6 10 -25 14 -25 6z"/>
<path d="M7090 6126 c0 -2 8 -10 18 -17 15 -13 16 -12 3 4 -13 16 -21 21 -21
13z"/>
<path d="M7052 6047 c-12 -24 -22 -52 -22 -61 0 -9 -5 -16 -10 -16 -7 0 -7 -6
0 -19 5 -11 7 -33 4 -50 -4 -20 -1 -37 7 -48 8 -9 9 -14 3 -10 -8 4 -14 -5
-18 -26 -12 -62 -21 -79 -43 -75 -30 5 -24 -20 9 -39 23 -14 37 -32 46 -61 17
-57 15 -72 -10 -99 l-21 -23 36 0 c36 0 36 0 42 53 3 28 5 63 5 77 -1 14 -1
99 -1 189 1 91 -1 167 -4 169 -2 3 0 13 5 23 6 9 6 27 2 39 -7 19 -10 17 -30
-23z m14 -12 c-9 -9 -16 -13 -16 -8 0 12 22 34 28 28 2 -2 -3 -11 -12 -20z"/>
<path d="M11266 6052 c-3 -10 -15 -18 -27 -19 -11 -1 -34 -16 -51 -32 -18 -17
-40 -33 -50 -37 -10 -3 -18 -11 -18 -18 0 -19 -49 -51 -107 -70 -39 -13 -53
-23 -53 -36 0 -27 -65 -43 -170 -43 -83 1 -86 0 -111 -30 -23 -27 -32 -31 -68
-28 -46 3 -58 -11 -47 -54 9 -34 32 -42 54 -17 15 18 25 20 100 15 78 -5 108
-18 60 -25 -28 -4 -47 -51 -31 -76 11 -17 44 -20 75 -7 13 5 22 -1 35 -24 12
-20 26 -31 40 -31 26 0 53 -34 46 -59 -2 -10 -18 -25 -34 -35 -38 -23 -38 -55
1 -81 16 -11 30 -22 30 -25 0 -19 -55 -33 -139 -36 -321 -10 -386 -15 -397
-29 -6 -8 -14 -12 -17 -8 -4 3 -7 1 -7 -6 0 -7 -4 -10 -9 -7 -5 3 -14 -1 -20
-8 -19 -23 7 -31 30 -10 18 16 19 16 13 1 -5 -14 1 -17 40 -17 29 0 46 -4 46
-12 0 -9 3 -9 12 0 7 7 25 12 40 12 15 0 28 5 28 10 0 13 52 13 118 0 27 -5
69 -10 93 -11 24 -1 50 -7 57 -12 8 -6 17 -5 27 3 12 10 23 7 60 -14 25 -15
45 -23 45 -19 0 4 5 1 10 -7 8 -13 10 -12 10 3 0 10 7 17 18 17 14 0 15 -2 2
-10 -24 -15 -4 -12 34 7 19 9 33 20 30 25 -3 4 2 5 10 2 21 -8 133 106 179
183 92 151 127 348 93 528 -22 119 -65 197 -80 147z m-426 -382 c0 -5 -2 -10
-4 -10 -3 0 -8 5 -11 10 -3 6 -1 10 4 10 6 0 11 -4 11 -10z m15 -60 c3 -5 1
-10 -4 -10 -6 0 -11 5 -11 10 0 6 2 10 4 10 3 0 8 -4 11 -10z m-485 -390 c0
-5 -5 -10 -11 -10 -5 0 -7 5 -4 10 3 6 8 10 11 10 2 0 4 -4 4 -10z m680 -34
c0 -2 -7 -7 -16 -10 -8 -3 -12 -2 -9 4 6 10 25 14 25 6z"/>
<path d="M7000 5941 c0 -6 4 -13 10 -16 6 -3 7 1 4 9 -7 18 -14 21 -14 7z"/>
<path d="M6938 5768 c3 -14 1 -19 -6 -14 -11 7 -45 -51 -37 -65 3 -4 14 -7 24
-6 13 1 17 7 14 22 -4 17 -3 18 7 5 10 -13 11 -12 6 4 -4 11 0 26 8 35 14 15
13 18 -3 28 -16 10 -18 9 -13 -9z m-18 -63 c0 -8 -4 -15 -10 -15 -5 0 -7 7 -4
15 4 8 8 15 10 15 2 0 4 -7 4 -15z"/>
<path d="M10551 5574 c0 -11 3 -14 6 -6 3 7 2 16 -1 19 -3 4 -6 -2 -5 -13z"/>
<path d="M10533 5375 c2 -11 8 -19 15 -18 6 2 9 -4 6 -12 -5 -12 3 -15 41 -15
25 0 54 -4 64 -10 14 -7 23 -5 36 10 24 27 12 37 -45 40 -95 3 -105 4 -113 15
-5 6 -7 1 -4 -10z"/>
<path d="M9893 5225 c0 -22 2 -30 4 -17 2 12 2 30 0 40 -3 9 -5 -1 -4 -23z"/>
<path d="M7140 5223 c0 -4 5 -15 10 -23 8 -13 10 -13 10 2 0 9 -4 20 -10 23
-5 3 -10 3 -10 -2z"/>
<path d="M9708 5213 c7 -3 16 -2 19 1 4 3 -2 6 -13 5 -11 0 -14 -3 -6 -6z"/>
<path d="M7170 5202 c0 -5 7 -9 15 -9 8 0 15 4 15 9 0 4 -7 8 -15 8 -8 0 -15
-4 -15 -8z"/>
<path d="M7260 5029 c-7 -11 -9 -23 -6 -27 3 -3 6 0 6 7 0 7 4 10 9 6 6 -3 9
4 8 15 -2 25 -4 25 -17 -1z"/>
<path d="M10275 4949 c-4 -6 -5 -12 -2 -15 2 -3 7 2 10 11 7 17 1 20 -8 4z"/>
<path d="M10311 4854 c0 -11 3 -14 6 -6 3 7 2 16 -1 19 -3 4 -6 -2 -5 -13z"/>
<path d="M10300 4821 c0 -5 5 -13 10 -16 6 -3 10 -2 10 4 0 5 -4 13 -10 16 -5
3 -10 2 -10 -4z"/>
<path d="M6375 4569 c-4 -6 -5 -12 -2 -15 2 -3 7 2 10 11 7 17 1 20 -8 4z"/>
<path d="M5966 3868 c5 -8 2 -9 -10 -5 -11 5 -15 3 -10 -5 5 -8 2 -9 -9 -5 -9
3 -18 3 -21 -1 -2 -4 13 -8 35 -8 40 -1 54 18 23 30 -10 4 -13 2 -8 -6z"/>
<path d="M4600 6540 c-8 -5 -10 -10 -4 -10 8 0 12 -23 13 -62 0 -34 5 -66 10
-71 5 -5 30 -5 55 -2 l47 7 -2 62 c-1 33 -6 67 -12 74 -11 14 -85 16 -107 2z"/>
<path d="M4308 6503 c6 -2 9 -10 6 -15 -4 -7 -2 -8 5 -4 13 9 5 26 -12 25 -9
0 -8 -2 1 -6z"/>
<path d="M4420 6391 c-8 -6 -26 -7 -40 -4 -17 3 -31 -1 -39 -11 -16 -18 -8
-20 20 -6 31 17 45 0 18 -21 -24 -18 -24 -18 -1 -12 12 3 22 9 22 13 0 11 29
40 39 40 4 0 8 -6 8 -14 0 -8 -6 -12 -12 -9 -7 2 -15 -3 -18 -11 -6 -14 -3
-14 27 -2 19 8 36 12 39 10 2 -2 4 2 4 9 0 8 -5 14 -11 14 -6 0 -18 3 -26 7
-8 3 -22 2 -30 -3z"/>
<path d="M4320 6326 c0 -16 -6 -18 -41 -13 -22 3 -39 4 -37 3 39 -26 59 -36
54 -27 -4 7 1 11 13 11 25 0 32 12 20 30 -7 12 -9 12 -9 -4z"/>
<path d="M4244 6274 c0 -27 6 -30 24 -12 17 17 15 25 -6 30 -14 4 -18 -1 -18
-18z"/>
<path d="M4169 6213 c-13 -17 -13 -17 6 -3 11 8 22 16 24 17 2 2 0 3 -6 3 -6
0 -17 -8 -24 -17z"/>
<path d="M4093 6153 c4 -3 1 -13 -6 -22 -11 -14 -10 -14 5 -2 16 12 16 31 1
31 -4 0 -3 -3 0 -7z"/>
<path d="M5683 4429 c-6 -6 -33 -11 -61 -12 -28 -1 -48 -5 -46 -9 7 -10 1 -10
-31 2 -14 5 -24 6 -21 1 3 -5 -1 -14 -9 -21 -8 -7 -15 -21 -15 -32 0 -12 -4
-16 -11 -12 -7 4 -10 1 -7 -7 3 -8 11 -13 17 -11 7 1 10 -2 6 -7 -3 -6 -13 -7
-23 -4 -9 3 -14 3 -10 -1 4 -5 3 -13 -3 -20 -33 -41 -89 -116 -89 -120 0 -3 6
-3 14 0 8 3 17 1 20 -4 3 -5 -7 -8 -23 -6 -23 3 -33 -3 -47 -24 -15 -24 -16
-25 -1 -13 9 7 17 9 17 3 0 -5 -7 -15 -16 -23 -13 -10 -17 -10 -25 2 -6 9 -9
10 -9 2 0 -7 9 -17 20 -23 20 -11 21 -10 24 13 1 8 20 13 56 13 30 1 87 11
125 22 52 14 76 17 93 9 17 -8 25 -7 35 5 6 8 25 22 41 32 16 10 25 21 20 25
-5 3 -16 15 -24 25 -15 19 -14 19 12 2 l27 -17 -6 48 c-2 26 -7 72 -10 101 -4
47 -7 51 -21 40 -13 -11 -15 -10 -10 10 7 25 6 26 -9 11z m14 -101 c-3 -8 -6
-5 -6 6 -1 11 2 17 5 13 3 -3 4 -12 1 -19z m3 -123 c11 -13 10 -14 -4 -9 -9 3
-16 10 -16 15 0 13 6 11 20 -6z"/>
<path d="M5285 3880 c-3 -6 1 -7 9 -4 18 7 21 14 7 14 -6 0 -13 -4 -16 -10z"/>
<path d="M7067 3099 c7 -7 15 -10 18 -7 3 3 -2 9 -12 12 -14 6 -15 5 -6 -5z"/>
<path d="M7049 3082 c9 -7 10 -11 2 -15 -7 -4 -8 -5 0 -3 15 2 13 20 -3 24
-10 3 -10 2 1 -6z"/>
<path d="M6955 3070 c-3 -6 1 -7 9 -4 18 7 21 14 7 14 -6 0 -13 -4 -16 -10z"/>
<path d="M6990 3061 c-24 -7 -24 -8 -6 -18 15 -8 23 -8 33 2 24 25 18 29 -27
16z"/>
<path d="M6963 3021 c1 -15 4 -17 14 -9 7 5 10 14 7 19 -10 16 -23 9 -21 -10z"/>
<path d="M8446 3088 c3 -4 14 -8 25 -8 10 0 19 -6 19 -12 0 -9 3 -9 9 1 7 11
10 10 14 -5 3 -14 5 -11 6 8 1 25 -2 27 -38 25 -22 0 -37 -5 -35 -9z"/>
<path d="M8410 3082 c0 -5 16 -13 35 -19 43 -14 45 -9 3 11 -36 18 -38 19 -38
8z"/>
<path d="M8165 2761 c-8 -7 -5 -55 3 -66 4 -5 15 -11 25 -13 14 -2 17 5 17 42
0 39 -3 45 -20 43 -12 -1 -23 -3 -25 -6z"/>
<path d="M9152 3071 c-55 -14 -110 -58 -141 -113 -19 -33 -26 -55 -20 -59 12
-7 -9 -49 -24 -49 -4 0 -6 -4 -3 -9 4 -5 -1 -38 -9 -73 -40 -171 0 -394 88
-487 87 -91 233 -95 320 -8 76 76 107 184 107 370 0 174 -27 275 -96 356 -49
59 -147 90 -222 72z"/>
<path d="M8910 3060 c8 -5 20 -10 25 -10 6 0 3 5 -5 10 -8 5 -19 10 -25 10 -5
0 -3 -5 5 -10z"/>
<path d="M8987 3043 c-4 -3 1 -12 11 -20 9 -8 11 -11 3 -7 -10 5 -12 3 -7 -5
5 -7 0 -21 -10 -32 -10 -11 -12 -19 -6 -19 7 0 12 4 12 9 0 5 14 23 30 40 17
17 26 32 20 36 -5 3 -10 1 -10 -6 0 -10 -3 -10 -12 -1 -14 14 -22 15 -31 5z"/>
<path d="M8789 2989 c-24 -23 -36 -35 -26 -28 15 11 20 10 28 -2 8 -10 9 -8 4
8 -5 18 -1 25 19 35 14 6 26 15 26 20 0 13 -5 10 -51 -33z"/>
<path d="M8765 2900 c-3 -5 -1 -10 4 -10 6 0 11 5 11 10 0 6 -2 10 -4 10 -3 0
-8 -4 -11 -10z"/>
<path d="M3548 3073 c7 -3 16 -2 19 1 4 3 -2 6 -13 5 -11 0 -14 -3 -6 -6z"/>
<path d="M10490 2629 c0 -5 5 -7 10 -4 6 3 10 8 10 11 0 2 -4 4 -10 4 -5 0
-10 -5 -10 -11z"/>
<path d="M10179 2578 c-1 -18 -2 -19 -6 -5 -4 17 -12 18 -86 12 -45 -4 -87
-12 -94 -18 -8 -8 -12 -64 -14 -172 -1 -133 -5 -165 -20 -192 l-18 -32 27 4
c15 1 40 3 55 4 16 1 26 5 22 11 -3 6 3 10 14 10 12 0 21 5 21 10 0 6 24 10
53 10 28 0 47 4 41 8 -9 5 -8 11 2 20 11 10 14 10 14 0 0 -9 2 -10 8 -1 11 18
5 347 -7 351 -6 2 -12 -7 -12 -20z m8 -160 c-2 -13 -4 -3 -4 22 0 25 2 35 4
23 2 -13 2 -33 0 -45z m-194 -208 c-3 -12 -8 -19 -11 -16 -5 6 5 36 12 36 2 0
2 -9 -1 -20z"/>
<path d="M10487 2564 c-14 -15 -6 -24 21 -24 28 0 54 -20 65 -50 3 -10 6 -7 6
8 1 14 5 20 12 17 6 -4 8 -13 5 -21 -3 -8 -1 -14 4 -14 6 0 10 6 10 13 0 8 4
7 10 -3 5 -8 10 -11 10 -6 0 19 -42 55 -58 49 -9 -4 -13 -2 -9 4 4 6 -4 14
-17 17 -13 3 -30 8 -38 11 -8 3 -17 2 -21 -1z"/>
<path d="M10434 2553 c15 -4 16 -7 5 -15 -11 -7 -11 -9 -1 -6 20 5 16 23 -5
25 -15 2 -15 1 1 -4z"/>
<path d="M10640 2461 c0 -6 5 -11 10 -11 6 0 8 -11 4 -25 -5 -20 -3 -24 9 -19
9 3 13 13 10 24 -6 23 -33 48 -33 31z"/>
<path d="M10420 2431 c0 -6 5 -13 10 -16 6 -3 10 1 10 9 0 9 -4 16 -10 16 -5
0 -10 -4 -10 -9z"/>
<path d="M10425 2370 c7 -14 21 -34 29 -45 15 -19 16 -19 9 -1 -3 11 -2 17 3
14 5 -4 10 6 10 20 1 15 -1 21 -3 13 -5 -11 -7 -11 -15 0 -6 10 -7 6 -3 -11 5
-22 4 -23 -5 -7 -7 10 -10 24 -7 30 3 7 -3 13 -13 13 -16 0 -17 -3 -5 -26z"/>
<path d="M11016 3086 c3 -7 10 -13 17 -14 7 0 55 -3 108 -6 90 -5 97 -4 102
13 4 19 -2 20 -114 20 -91 0 -117 -3 -113 -13z"/>
<path d="M9740 1320 c-9 -6 -10 -10 -3 -10 6 0 15 5 18 10 8 12 4 12 -15 0z"/>
<path d="M9673 1305 c0 -8 4 -12 9 -9 5 3 6 10 3 15 -9 13 -12 11 -12 -6z"/>
<path d="M9848 1283 c7 -3 16 -2 19 1 4 3 -2 6 -13 5 -11 0 -14 -3 -6 -6z"/>
<path d="M9490 1230 c-8 -5 -10 -10 -5 -10 6 0 17 5 25 10 8 5 11 10 5 10 -5
0 -17 -5 -25 -10z"/>
<path d="M8898 963 c7 -3 16 -2 19 1 4 3 -2 6 -13 5 -11 0 -14 -3 -6 -6z"/>
<path d="M8855 920 c3 -5 10 -10 16 -10 5 0 9 5 9 10 0 6 -7 10 -16 10 -8 0
-12 -4 -9 -10z"/>
<path d="M6335 770 c3 -5 10 -10 16 -10 5 0 9 5 9 10 0 6 -7 10 -16 10 -8 0
-12 -4 -9 -10z"/>
</g>
</svg>
